<svg xmlns="http://www.w3.org/2000/svg" width="1903.587" height="612.341" viewBox="0 0 1903.587 612.341">
  <g id="Group_78" data-name="Group 78" transform="translate(218.149 0.75)">
    <path id="Path_80" data-name="Path 80" d="M2056.517,2826.178c15.407,4.373,25.26,11.494,24.8,19.469-.747,13.021-28.683,23.258-62.191,22.869-33.284-.386-59.505-11.124-58.767-23.986.266-4.624,3.982-8.911,10.181-12.494" transform="translate(-1158.323 -2338.086)" fill="none" stroke="#000" stroke-miterlimit="10" stroke-width="1.5"/>
    <path id="Path_82" data-name="Path 82" d="M1752.282,2792.3c-143.326,6.4-281.021-17.183-367.605-34.517" transform="translate(-1602.679 -2378.376)" fill="none" stroke="#000" stroke-miterlimit="10" stroke-width="1.5"/>
    <path id="Path_83" data-name="Path 83" d="M1789.1,2757.785c-40.955,7.448-84.941,13.322-129.675,17.415" transform="translate(-1276.645 -2364.978)" fill="none" stroke="#000" stroke-miterlimit="10" stroke-width="1.5"/>
    <path id="Path_84" data-name="Path 84" d="M2175.319,2782.279l-87.673,10.662-13.5-3.3-1.114-246.753" transform="translate(-1114.013 -2449.474)" fill="none" stroke="#000" stroke-miterlimit="10" stroke-width="1.5"/>
    <path id="Path_85" data-name="Path 85" d="M2696.279,2740.031c-98.578-73.183-299.185-63.226-361.99-61.381" transform="translate(-1011.288 -2396.676)" fill="none" stroke="#000" stroke-miterlimit="10" stroke-width="1.5"/>
    <g id="Group_67" data-name="Group 67" transform="translate(463.754 154.245)">
      <g id="Group_66" data-name="Group 66">
        <path id="Path_86" data-name="Path 86" d="M1777.414,2612.6" transform="translate(-1694.007 -2576.31)" fill="none" stroke="#000" stroke-miterlimit="10" stroke-width="1.5"/>
        <path id="Path_87" data-name="Path 87" d="M1753.439,2653.55c-5.825-6.762-13.021-11.7-21.961-13.794-45.941-10.761,31.591,159.152,89.76,158.285,26.352-.394,46.6-20.752,46.6-20.752" transform="translate(-1717.546 -2565.824)" fill="none" stroke="#000" stroke-miterlimit="10" stroke-width="1.5"/>
        <path id="Path_88" data-name="Path 88" d="M1804.81,2760.575c-51.657.9-33.541-78.593-61.5-111.056" transform="translate(-1707.417 -2561.793)" fill="none" stroke="#000" stroke-miterlimit="10" stroke-width="1.5"/>
        <path id="Path_89" data-name="Path 89" d="M1798.76,2753.655a37.5,37.5,0,0,1,1.714,12.081c-.495,7.927-34.876,5.015-35.26,11.194-.58,9.334,78.2,8.053,78.776-1.135.368-5.916-35.543-3.066-35.1-10.185.336-5.4,2.5-11.06,3.388-13.311" transform="translate(-1698.805 -2521.38)" fill="none" stroke="#000" stroke-miterlimit="10" stroke-width="1.5"/>
        <path id="Path_90" data-name="Path 90" d="M1764.341,2647.608c-13.025,2.513-22.589-1-27.308-3.786" transform="translate(-1709.884 -2564.032)" fill="none" stroke="#000" stroke-miterlimit="10" stroke-width="1.5"/>
        <path id="Path_91" data-name="Path 91" d="M1796.3,2602.883c-2.3,5.813-5.765,17.33-6.026,38.494-.237,19.2-33.857-2.155-33.641,22.329s15.137,90.358,47.66,106.793c34.574,17.47,36.19-34.9,38.065-36.8,0,0,7.318-15.93,18.189-15.355s32.583,101.895,37.193,105.075,37.44,26.125,25.172,27.5c-10.761,1.208-27.918-9.932-30.591-19.527-2.38-8.545-50.863-49.365-44.649-87.08" transform="translate(-1702.178 -2580.13)" fill="none" stroke="#000" stroke-miterlimit="10" stroke-width="1.5"/>
        <path id="Path_92" data-name="Path 92" d="M1780.841,2716.558s39.29-46.185,75.383-50.04c36.23-3.869,17.368,55.186,48.343,63.066,10.127-3.329,17.584-3.47,33.391-12.136,13.546-.528-12.68,21.018-24.736,26.774-9.39,4.483-11.679-.179-13.552-4.237s-29.2-13.893-39.513-32.014" transform="translate(-1692.659 -2555.18)" fill="none" stroke="#000" stroke-miterlimit="10" stroke-width="1.5"/>
        <path id="Path_93" data-name="Path 93" d="M1795.872,2628.369c5.436,7.024,20.3,9.254,23.169,7.551,4.4-2.615,10.417-62.458-30.157-46.742-33.426,12.947-1.526,35.248-1.526,35.248s-6.878-5.094-17.145,2.979,9.769,14.66,9.769,14.66-.595-8.862,6.183-10.427" transform="translate(-1697.987 -2586.552)" fill="none" stroke="#000" stroke-miterlimit="10" stroke-width="1.5"/>
        <path id="Path_94" data-name="Path 94" d="M1794.59,2620.718c-1.652,6.881-4.288,17.829.784,20.632s12.067-2.566,23.1,6.1" transform="translate(-1688.108 -2573.117)" fill="none" stroke="#000" stroke-miterlimit="10" stroke-width="1.5"/>
        <path id="Path_95" data-name="Path 95" d="M1772.235,2656.029s4.106,34.585,21.968,38.336c12.195,2.561,17.858-45.092,35.041-50.743,2.813-.067,3.706,2.576,6.175,2.335,6.755-1.307,4.5,11.189-2.157,16.565-3.493-.294-8.851-3.249-12.094,3.769s-2.557,25.633-8.478,32.109" transform="translate(-1696.043 -2564.112)" fill="none" stroke="#000" stroke-miterlimit="10" stroke-width="1.5"/>
        <path id="Path_96" data-name="Path 96" d="M1847.014,2638.726c-.344,2.544-7.234,4.777-15.8,4.982s-15.356-1.691-15.2-4.234,7.221-4.848,15.771-4.981C1841.145,2634.348,1847.355,2636.194,1847.014,2638.726Z" transform="translate(-1678.828 -2567.704)" fill="none" stroke="#000" stroke-miterlimit="10" stroke-width="1.5"/>
        <path id="Path_97" data-name="Path 97" d="M1840.535,2657.043a18.748,18.748,0,0,1-11.35,4.12c-5.8.131-10.006-.983-12.11-4.946" transform="translate(-1678.411 -2559.159)" fill="none" stroke="#000" stroke-miterlimit="10" stroke-width="1.5"/>
        <path id="Path_98" data-name="Path 98" d="M1841.752,2641.163c-3.451.681-13.2,10.019-7.464,9.151,3.512-.532-1.275,7.761,2.33,8.029C1840.1,2658.6,1845.2,2640.482,1841.752,2641.163Z" transform="translate(-1672.34 -2565.085)" fill="none" stroke="#000" stroke-miterlimit="10" stroke-width="1.5"/>
        <line id="Line_11" data-name="Line 11" x1="0.504" y2="8.096" transform="translate(136.667 72.12)" fill="none" stroke="#000" stroke-miterlimit="10" stroke-width="1.5"/>
        <path id="Path_99" data-name="Path 99" d="M1780.043,2663.262c-5.744-.183-16.458,7.289-19.159,14.368" transform="translate(-1700.506 -2556.391)" fill="none" stroke="#000" stroke-miterlimit="10" stroke-width="1.5"/>
        <path id="Path_100" data-name="Path 100" d="M1825.023,2613.488c-4.664,4.759.826,7.83,1.856,13.156s-4.035,11.164-5.038,11.9" transform="translate(-1676.538 -2575.96)" fill="none" stroke="#000" stroke-miterlimit="10" stroke-width="1.5"/>
        <path id="Path_101" data-name="Path 101" d="M1836.51,2617.569c3.021,4.653,2.48,12.453-.546,15.572" transform="translate(-1670.984 -2574.355)" fill="none" stroke="#000" stroke-miterlimit="10" stroke-width="1.5"/>
        <path id="Path_102" data-name="Path 102" d="M1832.3,2607.955c-4.668,4.763-.251,10.385.78,15.714s-2.834,12.255-3.837,12.994" transform="translate(-1673.627 -2578.136)" fill="none" stroke="#000" stroke-miterlimit="10" stroke-width="1.5"/>
        <path id="Path_103" data-name="Path 103" d="M1808.792,2636.165a8.965,8.965,0,0,1,3.693,2.3c2.4,3.027-4.156,5.684-14.635,5.933s-20.883-2-23.272-5.017a1.725,1.725,0,0,1-.2-2.165" transform="translate(-1695.316 -2567.044)" fill="none" stroke="#000" stroke-miterlimit="10" stroke-width="1.5"/>
      </g>
    </g>
    <path id="Path_104" data-name="Path 104" d="M2111.823,2804.142l-.209-288.206-147.886-2.054.476,302.75-174.15,23.657" transform="translate(-1136.457 -2460.88)" fill="none" stroke="#000" stroke-miterlimit="10" stroke-width="1.5"/>
    <path id="Path_105" data-name="Path 105" d="M2022.977,2493.48s-20.7,5.756-26.174,7.239" transform="translate(-1143.988 -2468.903)" fill="none" stroke="#000" stroke-miterlimit="10" stroke-width="1.5"/>
    <path id="Path_106" data-name="Path 106" d="M1985.376,2475.855c42.094,1.956,137.774,14.326,137.774,14.326l26.1,9.4v8.889l-24.632,8.125-139.241-1.985" transform="translate(-1148.481 -2475.833)" fill="none" stroke="#000" stroke-miterlimit="10" stroke-width="1.5"/>
    <g id="Group_70" data-name="Group 70" transform="translate(1008.41 232.266)">
      <g id="Group_69" data-name="Group 69">
        <g id="Group_68" data-name="Group 68">
          <path id="Path_107" data-name="Path 107" d="M2303.566,2676.533" transform="translate(-2031.778 -2629.192)" fill="none" stroke="#000" stroke-miterlimit="10" stroke-width="1.5"/>
          <path id="Path_108" data-name="Path 108" d="M2275.821,2883.594c43.571-22.664,83.145-91.423,85.427-122.121s-28.089-25.908-41.828-41.686c-11.8-13.551-3.494-28.852-3.494-28.852s21.217-34.17-7.721-45.379c-49.966-19.356-44.985,61.054-39.514,63.926,2.274,1.194,11-.024,19-3.456" transform="translate(-2046.798 -2642.553)" fill="none" stroke="#000" stroke-miterlimit="10" stroke-width="1.5"/>
          <path id="Path_109" data-name="Path 109" d="M2237.789,2811.962c4.935,46.162-62.039,75.664-61.448,86.8.663,12.5-13.01,7.61-26.456,8.9-46.615,4.49-66.081-31.5,7.732-14.513,6.96,1.6,51.491-111.409,67.261-119.068,15.8-7.669,23.578-1.028,34.1,7.308" transform="translate(-2108.485 -2592.166)" fill="none" stroke="#000" stroke-miterlimit="10" stroke-width="1.5"/>
          <path id="Path_110" data-name="Path 110" d="M2310.86,2680.145c1.587,8.429-.458,33.193-7.256,37.108s-15.392-2.185-30.311,9.5c0,0-21.473,20.777-12.49,74.718,8.993,53.986-29.006,8.093-33.335,1.237s-18.437-5.8-24.7,3.8" transform="translate(-2071.411 -2627.772)" fill="none" stroke="#000" stroke-miterlimit="10" stroke-width="1.5"/>
          <path id="Path_111" data-name="Path 111" d="M2218.781,2714.735c.235,3.115,8.861,5.315,19.8,4.87s19.841-3.352,19.841-6.492-8.888-5.414-19.841-4.869C2226.626,2708.839,2218.546,2711.634,2218.781,2714.735Z" transform="translate(-2065.117 -2616.755)" fill="none" stroke="#000" stroke-miterlimit="10" stroke-width="1.5"/>
          <path id="Path_112" data-name="Path 112" d="M2254.509,2742.736c-3.019,5.075-8.508,6.785-15.929,7.074s-12.838-2.949-14.193-4.211l-5.607-32.719" transform="translate(-2065.116 -2614.9)" fill="none" stroke="#000" stroke-miterlimit="10" stroke-width="1.5"/>
          <line id="Line_12" data-name="Line 12" y2="10.001" transform="translate(193.304 96.791)" fill="none" stroke="#000" stroke-miterlimit="10" stroke-width="1.5"/>
          <path id="Path_113" data-name="Path 113" d="M2239.843,2681.93c5.606,5.494-1.683,9.774-3.427,16.462s4.283,13.49,5.51,14.322" transform="translate(-2058.305 -2627.07)" fill="none" stroke="#000" stroke-miterlimit="10" stroke-width="1.5"/>
          <path id="Path_114" data-name="Path 114" d="M2223.712,2688.041c-4.228,6.013-4.157,15.609-.541,19.212" transform="translate(-2064.441 -2624.667)" fill="none" stroke="#000" stroke-miterlimit="10" stroke-width="1.5"/>
          <path id="Path_115" data-name="Path 115" d="M2230.606,2675.717c5.6,5.488-.505,12.834-2.249,19.519s2.65,14.928,3.876,15.759" transform="translate(-2061.509 -2629.513)" fill="none" stroke="#000" stroke-miterlimit="10" stroke-width="1.5"/>
          <path id="Path_116" data-name="Path 116" d="M2254.827,2850.758c15.261,10.56,37.141,5.139,43.528-8.813,13.819-30.189,7.009-84,26.609-116.038a20.056,20.056,0,0,1,15.292-9.377c21.658-2.021,76.05-7.277,85.607-9.977,62-17.52-54.627,201.963-130.252,204.377-33.926,1.084-85.088-44.043-94.315-73.354" transform="translate(-2071.991 -2617.779)" fill="none" stroke="#000" stroke-miterlimit="10" stroke-width="1.5"/>
        </g>
      </g>
      <path id="Path_117" data-name="Path 117" d="M2258.945,2838.058c-22.537,20.044-67,25.35-66.569,33.454.666,12.521-13.058,7.625-26.554,8.922" transform="translate(-2085.939 -2565.679)" fill="none" stroke="#000" stroke-miterlimit="10" stroke-width="1.5"/>
    </g>
    <path id="Path_118" data-name="Path 118" d="M2016.482,2797.058c-1.117,3.273-6.035,40.223-6.035,48.026,0,0-2.43,2.6-7.448,2.582" transform="translate(-1141.552 -2349.536)" fill="none" stroke="#000" stroke-miterlimit="10" stroke-width="1.5"/>
    <path id="Path_119" data-name="Path 119" d="M1994.272,2797.058s7.15,40.054,7.15,48.432" transform="translate(-1144.983 -2349.536)" fill="#fff" stroke="#000" stroke-miterlimit="10" stroke-width="1.5"/>
    <path id="Path_120" data-name="Path 120" d="M2325.944,2865.745c18.056,6.3,31.38,16.191,34.6,27.8,6.144,22.191-26.567,40.91-72.248,39.765-44.214-1.108-77.97-20.416-76.772-41.309.5-8.8,7.232-16.6,18-22.463" transform="translate(-1059.573 -2322.528)" fill="none" stroke="#000" stroke-miterlimit="10" stroke-width="1.5"/>
    <path id="Path_121" data-name="Path 121" d="M2275.377,2852.655c-1.591,12.012-3.131,25.616-3.131,30.1,0,0-2.377,2.544-7.279,2.713" transform="translate(-1038.546 -2327.675)" fill="none" stroke="#000" stroke-miterlimit="10" stroke-width="1.5"/>
    <path id="Path_122" data-name="Path 122" d="M2257.546,2850.709c2.09,12.657,4.486,28.254,4.486,33.234" transform="translate(-1041.464 -2328.439)" fill="#fff" stroke="#000" stroke-miterlimit="10" stroke-width="1.5"/>
    <g id="Group_71" data-name="Group 71" transform="translate(741.057 378.342)">
      <path id="Path_123" data-name="Path 123" d="M2030.487,2816.75c-64.161-1.428-114.974-17.995-113.883-37.01s53.684-33.465,117.858-32.268c64.607,1.2,116.408,17.791,115.3,37.039S2095.08,2818.189,2030.487,2816.75Z" transform="translate(-1916.587 -2747.402)" fill="none" stroke="#000" stroke-miterlimit="10" stroke-width="1.5"/>
    </g>
    <path id="Path_124" data-name="Path 124" d="M1560.638,2826.178c-15.407,4.373-25.26,11.494-24.8,19.469.747,13.021,28.683,23.258,62.191,22.869,33.284-.386,59.505-11.124,58.767-23.986-.266-4.624-3.982-8.911-10.182-12.494" transform="translate(-1325.247 -2338.086)" fill="none" stroke="#000" stroke-miterlimit="10" stroke-width="1.5"/>
    <path id="Path_125" data-name="Path 125" d="M1592.844,2796.237c-1.233,3.266-7.638,41.258-7.913,49.039a6.922,6.922,0,0,1-4.8,1.809" transform="translate(-1307.825 -2349.858)" fill="none" stroke="#000" stroke-miterlimit="10" stroke-width="1.5"/>
    <path id="Path_126" data-name="Path 126" d="M1571.718,2796.055s5.737,39.95,5.442,48.306" transform="translate(-1311.132 -2349.93)" fill="#fff" stroke="#000" stroke-miterlimit="10" stroke-width="1.5"/>
    <g id="Group_72" data-name="Group 72" transform="translate(149.603 376.965)">
      <path id="Path_127" data-name="Path 127" d="M1607.032,2815.813c-64.175.552-115.474-14.439-114.971-33.479s52.627-35.107,116.807-35.891c64.613-.789,116.9,14.193,116.39,33.465S1671.639,2815.258,1607.032,2815.813Z" transform="translate(-1492.057 -2746.414)" fill="none" stroke="#000" stroke-miterlimit="10" stroke-width="1.5"/>
    </g>
    <g id="Group_74" data-name="Group 74" transform="translate(240.265 282.557)">
      <g id="Group_73" data-name="Group 73" transform="translate(0 0)">
        <path id="Path_128" data-name="Path 128" d="M1562.653,2741.169l4.488,35.882c3.006,5.4,10.644,7.171,19.183,6.855a23.607,23.607,0,0,0,15.5-6.187l6.483-38.849" transform="translate(-1554.04 -2662.347)" fill="none" stroke="#000" stroke-miterlimit="10" stroke-width="1.5"/>
        <path id="Path_129" data-name="Path 129" d="M1608.308,2740.5c-.273,3.674-10.239,7.051-22.854,7.543-12.6.49-22.8-2.083-22.8-5.747s10.2-7.15,22.8-7.54C1599.242,2734.331,1608.581,2736.846,1608.308,2740.5Z" transform="translate(-1554.04 -2663.981)" fill="none" stroke="#000" stroke-miterlimit="10" stroke-width="1.5"/>
        <path id="Path_130" data-name="Path 130" d="M1588.2,2748.441c.727-1.655-33.969-27.122-31.616-36.359,0,0,19.693-2.336,28.029,11.949S1588.2,2748.441,1588.2,2748.441Z" transform="translate(-1556.471 -2677.544)" fill="none" stroke="#000" stroke-miterlimit="10" stroke-width="1.5"/>
        <path id="Path_131" data-name="Path 131" d="M1580.142,2746.529c-1.992-27,12.138-46.956,33.823-40.726C1613.965,2705.8,1582.136,2738.746,1580.142,2746.529Z" transform="translate(-1547.236 -2680.408)" fill="none" stroke="#000" stroke-miterlimit="10" stroke-width="1.5"/>
        <path id="Path_132" data-name="Path 132" d="M1580.463,2737.916c.635-2.466,14.988-44.91,7.961-50.664,0,0-14.6,6.549-15.823,23.446C1571.432,2726.854,1577.791,2732.144,1580.463,2737.916Z" transform="translate(-1550.184 -2687.252)" fill="none" stroke="#000" stroke-miterlimit="10" stroke-width="1.5"/>
      </g>
    </g>
    <g id="Group_77" data-name="Group 77" transform="translate(189.938 394.131)">
      <g id="Group_75" data-name="Group 75" transform="translate(0 18.358)">
        <path id="Path_133" data-name="Path 133" d="M1565.311,2778.393c-.235,3.563-9.882,6.46-22.124,6.448-12.227-.012-22.149-2.913-22.178-6.479s9.844-6.558,22.071-6.448C1556.462,2772.036,1565.547,2774.846,1565.311,2778.393Z" transform="translate(-1521.009 -2771.912)" fill="none" stroke="#000" stroke-miterlimit="10" stroke-width="1.5"/>
      </g>
      <g id="Group_76" data-name="Group 76" transform="translate(11.406)">
        <path id="Path_134" data-name="Path 134" d="M1529.2,2761.438l2.455,18.557c1.8,2.984,5.052,3.893,9.436,3.907a13.092,13.092,0,0,0,8.384-2.846l3.167-19.858" transform="translate(-1529.196 -2757.767)" fill="none" stroke="#000" stroke-miterlimit="10" stroke-width="1.5"/>
        <path id="Path_135" data-name="Path 135" d="M1552.639,2762.165c-.125,1.885-5.23,3.417-11.708,3.409s-11.719-1.542-11.735-3.429,5.211-3.468,11.681-3.409C1547.957,2758.8,1552.765,2760.289,1552.639,2762.165Z" transform="translate(-1529.196 -2758.735)" fill="none" stroke="#000" stroke-miterlimit="10" stroke-width="1.5"/>
      </g>
    </g>
    <path id="Path_136" data-name="Path 136" d="M2048.942,2670.261c8.511-28.423-5.024-53.574-7.916-73-3.592-24.115,1.361-46.448,9.939-59.406" transform="translate(-1127.064 -2451.454)" fill="none" stroke="#000" stroke-miterlimit="10" stroke-width="1.5"/>
    <path id="Path_137" data-name="Path 137" d="M2014.071,2613.734c-12.813-24.5-12.765-52.335-7.155-72.807" transform="translate(-1141.425 -2450.247)" fill="none" stroke="#000" stroke-miterlimit="10" stroke-width="1.5"/>
    <path id="Path_138" data-name="Path 138" d="M2029.4,2688.935c12.914-26.406,1.517-58.192-5.178-87.021-5.558-23.926-2.419-49.02,4.5-64.329" transform="translate(-1134.327 -2451.561)" fill="none" stroke="#000" stroke-miterlimit="10" stroke-width="1.5"/>
    <path id="Path_139" data-name="Path 139" d="M2139.629,2507.211l-106.907-6.795v-10.344L2000.9,2477.61c-4.161-1.188-7.824-1.907-10.272-1.749-10.283.67-18.609,9.878-18.609,20.566s8.326,18.835,18.609,18.193" transform="translate(-1153.733 -2475.839)" fill="none" stroke="#000" stroke-miterlimit="10" stroke-width="1.5"/>
  </g>
</svg>
