<?xml version="1.0" encoding="utf-8"?>
<!-- Generator: Adobe Illustrator 24.2.3, SVG Export Plug-In . SVG Version: 6.00 Build 0)  -->
<svg version="1.1" id="Layer_1" xmlns="http://www.w3.org/2000/svg" xmlns:xlink="http://www.w3.org/1999/xlink" x="0px" y="0px"
	 viewBox="0 0 17.7 105.2" style="enable-background:new 0 0 17.7 105.2;" xml:space="preserve">
<style type="text/css">
	.st0{fill:none;stroke:#020203;stroke-width:1.5;stroke-miterlimit:10;}
</style>
<g>
	<g>
		<path class="st0" d="M15,104.9c2.5-8.2,2.5-18,0-26.2"/>
		<path class="st0" d="M15,52.6c-2.5,8.2-2.5,18,0,26.2"/>
		<path class="st0" d="M15,52.6c2.5-8.2,2.5-18,0-26.2"/>
		<path class="st0" d="M15,0.2c-2.5,8.2-2.5,18,0,26.2"/>
	</g>
	<g>
		<path class="st0" d="M2.6,104.9c2.5-8.2,2.5-18,0-26.2"/>
		<path class="st0" d="M2.6,52.6c-2.5,8.2-2.5,18,0,26.2"/>
		<path class="st0" d="M2.6,52.6c2.5-8.2,2.5-18,0-26.2"/>
		<path class="st0" d="M2.6,0.2c-2.5,8.2-2.5,18,0,26.2"/>
	</g>
</g>
</svg>
