<?xml version="1.0" encoding="utf-8"?>
<!-- Generator: Adobe Illustrator 24.2.3, SVG Export Plug-In . SVG Version: 6.00 Build 0)  -->
<svg version="1.1" id="Layer_1" xmlns="http://www.w3.org/2000/svg" xmlns:xlink="http://www.w3.org/1999/xlink" x="0px" y="0px"
	 viewBox="0 0 61.5 491.9" style="enable-background:new 0 0 61.5 491.9;" xml:space="preserve">
<style type="text/css">
	.st0{fill:none;stroke:#020203;stroke-width:1.5;stroke-miterlimit:10;}
</style>
<g>
	<g>
		<path class="st0" d="M7.8,0.2c-9.4,38.6-9.4,84.3,0,122.9"/>
		<path class="st0" d="M7.8,245.9c9.4-38.6,9.4-84.3,0-122.9"/>
		<path class="st0" d="M7.8,245.9c-9.4,38.6-9.4,84.3,0,122.9"/>
		<path class="st0" d="M7.8,491.7c9.4-38.6,9.4-84.3,0-122.9"/>
	</g>
	<g>
		<path class="st0" d="M30.7,0.2c-9.4,38.6-9.4,84.3,0,122.9"/>
		<path class="st0" d="M30.7,245.9c9.4-38.6,9.4-84.3,0-122.9"/>
		<path class="st0" d="M30.7,245.9c-9.4,38.6-9.4,84.3,0,122.9"/>
		<path class="st0" d="M30.7,491.7c9.4-38.6,9.4-84.3,0-122.9"/>
	</g>
	<g>
		<path class="st0" d="M53.7,0.2c-9.4,38.6-9.4,84.3,0,122.9"/>
		<path class="st0" d="M53.7,245.9c9.4-38.6,9.4-84.3,0-122.9"/>
		<path class="st0" d="M53.7,245.9c-9.4,38.6-9.4,84.3,0,122.9"/>
		<path class="st0" d="M53.7,491.7c9.4-38.6,9.4-84.3,0-122.9"/>
	</g>
</g>
</svg>
