<svg xmlns="http://www.w3.org/2000/svg" width="146.329" height="147.483" viewBox="0 0 146.329 147.483">
  <g id="Logo_4i" data-name="Logo 4i" transform="translate(-14.987 -13.92)">
    <path id="Path_402" data-name="Path 402" d="M101.968,75.88H98.674L65.51,111.728v2.677H98.9v14.4h3.064v-14.4h9.042l.744-2.759h-9.786ZM98.9,111.661H69.265L98.9,79.687Z" transform="translate(-12.955 -15.887)" fill="#b2b2b2"/>
    <rect id="Rectangle_524" data-name="Rectangle 524" width="3.22" height="39.291" transform="translate(106.934 73.63)" fill="#b2b2b2"/>
    <rect id="Rectangle_525" data-name="Rectangle 525" width="3.368" height="7.28" transform="translate(106.859 58.23)" fill="#b2b2b2"/>
    <path id="Path_403" data-name="Path 403" d="M103.956,197.969l-.855-.089L102,208.431l1.361.141,1.108-10.559-.424-.045Z" transform="translate(-22.311 -47.17)" fill="#b2b2b2"/>
    <path id="Path_404" data-name="Path 404" d="M91.153,204.343l-1.086-8.923-.454-.119-.223-.059-.409-.1-5.317,7.28,2.089-8.113-1.219-.3L81.88,204.284l1.591.409,5.607-7.83,1.071,9.57,1.643.424,2.647-10.284-1.2-.342Z" transform="translate(-17.152 -46.175)" fill="#b2b2b2"/>
    <path id="Path_405" data-name="Path 405" d="M74.619,195.193l-1.985-.944a5.681,5.681,0,0,0-1.852-.58,2.922,2.922,0,0,0-1.4.141,2.506,2.506,0,0,0-1.026.7,4.29,4.29,0,0,0-.744,1.078,4.083,4.083,0,0,0-.364,1.167,2.231,2.231,0,0,0,.119,1.167,2.975,2.975,0,0,0,.8,1.138,6.4,6.4,0,0,0,1.643,1.056L73.02,201.6l4.551-9.592-1.219-.58Zm-2.29,4.841-1.963-.929a4.946,4.946,0,0,1-1.078-.654,1.941,1.941,0,0,1-.558-.684,1.368,1.368,0,0,1-.1-.744,3.153,3.153,0,0,1,.283-.863,3.094,3.094,0,0,1,.476-.744,1.487,1.487,0,0,1,.647-.439,1.778,1.778,0,0,1,.9-.052,4.774,4.774,0,0,1,1.219.409l1.971.944Z" transform="translate(-13.393 -45.516)" fill="#b2b2b2"/>
    <path id="Path_406" data-name="Path 406" d="M64,183.731l-2.528,3.614-1.725-1.2-.335-.223a3.666,3.666,0,0,0-.357-.208l.929-4.8-1.257-.87-.885,5.205a2.818,2.818,0,0,0-1.777.126,3.3,3.3,0,0,0-1.331,1.175,3.719,3.719,0,0,0-.483.989,2.141,2.141,0,0,0-.052,1.13,3.16,3.16,0,0,0,.587,1.249,5.845,5.845,0,0,0,1.487,1.331l2.855,1.985,5.986-8.767Zm-5.384,7.778-1.71-1.19a5.122,5.122,0,0,1-.959-.818,1.985,1.985,0,0,1-.431-.744,1.4,1.4,0,0,1,0-.744,2.633,2.633,0,0,1,.349-.744,3.1,3.1,0,0,1,.565-.625,1.323,1.323,0,0,1,.662-.3,1.755,1.755,0,0,1,.833.082,3.9,3.9,0,0,1,1.041.558l1.859,1.286Z" transform="translate(-10.042 -42.598)" fill="#b2b2b2"/>
    <path id="Path_407" data-name="Path 407" d="M51.859,176.352a4.2,4.2,0,0,0-.335-1.852,3.1,3.1,0,0,0-.178-.349,5.5,5.5,0,0,0-.974-1.309,5.264,5.264,0,0,0-1.309-.967,3.411,3.411,0,0,0-.372-.178,4.082,4.082,0,0,0-1.852-.32,4.923,4.923,0,0,0-1.948.55,7.555,7.555,0,0,0-1.933,1.443,7.272,7.272,0,0,0-1.42,1.933,4.915,4.915,0,0,0-.521,1.933,4.045,4.045,0,0,0,.335,1.844,5.153,5.153,0,0,0,1.138,1.68,5.027,5.027,0,0,0,1.658,1.13,4.224,4.224,0,0,0,1.859.327,5.13,5.13,0,0,0,1.956-.528,8.112,8.112,0,0,0,3.368-3.368A4.863,4.863,0,0,0,51.859,176.352Zm-1.331,0a4.083,4.083,0,0,1-.513,1.435,7.719,7.719,0,0,1-2.543,2.551,4.083,4.083,0,0,1-1.443.521,2.975,2.975,0,0,1-1.405-.134,3.451,3.451,0,0,1-1.286-.848,3.279,3.279,0,0,1-.848-1.249,2.922,2.922,0,0,1-.134-1.391,4.052,4.052,0,0,1,.513-1.45,6.617,6.617,0,0,1,1.108-1.428,6.462,6.462,0,0,1,1.487-1.123,3.963,3.963,0,0,1,1.435-.521,2.974,2.974,0,0,1,1.391.134,3.867,3.867,0,0,1,2.142,2.134,2.974,2.974,0,0,1,.1,1.391Z" transform="translate(-6.673 -40.372)" fill="#b2b2b2"/>
    <path id="Path_408" data-name="Path 408" d="M39.275,161.25,28.24,163.986l.84,1.2,9.139-2.372-5.406,7.718L33.7,171.8l6.373-9.421Z" transform="translate(-3.398 -37.778)" fill="#b2b2b2"/>
    <rect id="Rectangle_526" data-name="Rectangle 526" width="10.618" height="1.368" transform="translate(22.368 121.477) rotate(-27.62)" fill="#b2b2b2"/>
    <path id="Path_409" data-name="Path 409" d="M30.521,143.843l-7.882,2.878,6.008-7.986L28.2,137.5l-9.971,3.651.454,1.242,7.919-2.9-6.068,7.971L21,148.736l9.971-3.651Z" transform="translate(-0.832 -31.688)" fill="#b2b2b2"/>
    <path id="Path_410" data-name="Path 410" d="M21.325,131.453a7.763,7.763,0,0,0,2.231-.706,4.833,4.833,0,0,0,1.562-1.234,4.164,4.164,0,0,0,.825-1.71,3.227,3.227,0,0,0,.067-.4,5.6,5.6,0,0,0-.007-1.7,6.96,6.96,0,0,0-.268-1.063,4.99,4.99,0,0,0-.238-.58c-.067-.149-.134-.3-.216-.446a5.949,5.949,0,0,0-.625-.922,4.759,4.759,0,0,0-.744-.744l-4.194.744.654,3.911,1.175-.193-.446-2.64,2.506-.424a3.867,3.867,0,0,1,.818,1.153,5.949,5.949,0,0,1,.439,1.487,3.569,3.569,0,0,1-.052,1.576,2.893,2.893,0,0,1-.7,1.227,3.822,3.822,0,0,1-1.264.87,7.176,7.176,0,0,1-1.733.5,6.879,6.879,0,0,1-1.807.089,4.2,4.2,0,0,1-1.487-.394,2.907,2.907,0,0,1-1.063-.877,3.309,3.309,0,0,1-.558-1.383,3.532,3.532,0,0,1,0-1.108,2.1,2.1,0,0,1,.29-.825,2.461,2.461,0,0,1,.565-.617,4.745,4.745,0,0,1,.788-.454l-.439-1.264a4.781,4.781,0,0,0-1.145.669,3.406,3.406,0,0,0-.818.944,3.48,3.48,0,0,0-.416,1.257,5.071,5.071,0,0,0,.052,1.591,4.789,4.789,0,0,0,.684,1.829,4.1,4.1,0,0,0,1.316,1.309,5.2,5.2,0,0,0,1.9.684A7.3,7.3,0,0,0,21.325,131.453Z" transform="translate(0 -27.7)" fill="#b2b2b2"/>
    <rect id="Rectangle_527" data-name="Rectangle 527" width="3.525" height="3.525" transform="translate(18.19 83.992) rotate(-85.42)" fill="#b2b2b2"/>
    <rect id="Rectangle_528" data-name="Rectangle 528" width="1.368" height="10.618" transform="translate(16.896 68.417) rotate(-74.21)" fill="#b2b2b2"/>
    <path id="Path_411" data-name="Path 411" d="M31.1,77.918a6.752,6.752,0,0,0,.558-2.156,4.253,4.253,0,0,0-1.391-3.554,6.945,6.945,0,0,0-2.008-1.272,7.086,7.086,0,0,0-2.231-.6,4.343,4.343,0,0,0-1.889.245,3.934,3.934,0,0,0-1.487,1.026,6.254,6.254,0,0,0-1.167,1.777L20,76.773,29.741,81ZM21.636,76.03l.937-2.156a4.075,4.075,0,0,1,.885-1.353,2.669,2.669,0,0,1,1.167-.677,3.5,3.5,0,0,1,1.428-.067,6.781,6.781,0,0,1,1.666.506,4.7,4.7,0,0,1,2.446,2.045,3.547,3.547,0,0,1-.134,3.086l-.825,1.9Z" transform="translate(-1.285 -14.461)" fill="#b2b2b2"/>
    <path id="Path_412" data-name="Path 412" d="M31.633,54.95,27.87,60.7l8.886,5.822,3.792-5.8-.885-.848L36.5,64.713l-3.064-2,2.855-4.357-1.019-.669-2.855,4.357-2.788-1.829,3.019-4.6Z" transform="translate(-3.303 -10.521)" fill="#b2b2b2"/>
    <path id="Path_413" data-name="Path 413" d="M50.624,50.287,51.643,49.2,41.062,45l-.982,1.056,4.952,10.269.937-1.078L44.6,52.436,47.7,49.1ZM44.014,51.3l-2.342-4.707,4.878,1.985Z" transform="translate(-6.434 -7.969)" fill="#b2b2b2"/>
    <path id="Path_414" data-name="Path 414" d="M61.314,41.248l-.58-1.093-4.357,3.368L50.628,36.08l-1.078.84,6.484,8.4Z" transform="translate(-8.862 -5.682)" fill="#b2b2b2"/>
    <rect id="Rectangle_529" data-name="Rectangle 529" width="3.525" height="3.525" transform="matrix(0.91, -0.414, 0.414, 0.91, 57.57, 24.822)" fill="#b2b2b2"/>
    <rect id="Rectangle_530" data-name="Rectangle 530" width="1.368" height="10.618" transform="translate(70.606 16.127) rotate(-13.18)" fill="#b2b2b2"/>
    <path id="Path_415" data-name="Path 415" d="M107.177,24.6,106.128,14.03l-1.324.126.833,8.4-6.2-7.86-1.346.134,1.048,10.566,1.316-.134-.825-8.343,6.239,7.808Z" transform="translate(-21.309 -0.028)" fill="#b2b2b2"/>
    <path id="Path_416" data-name="Path 416" d="M118.871,24.858l.647-9.377,3.5.245.089-1.219-8.388-.587-.082,1.219,3.5.245-.654,9.377Z" transform="translate(-25.553)" fill="#b2b2b2"/>
    <path id="Path_417" data-name="Path 417" d="M135.693,26.442l-5.636-1.3.825-3.569,5.071,1.182.275-1.19-5.071-1.175.751-3.249,5.361,1.242.275-1.167-6.692-1.554L128.45,26l6.752,1.569Z" transform="translate(-29.094 -0.446)" fill="#b2b2b2"/>
    <path id="Path_418" data-name="Path 418" d="M148.084,30.94,142.975,28.9l3.495-8.722L145.2,19.66l-3.948,9.86L147.437,32Z" transform="translate(-32.376 -1.472)" fill="#b2b2b2"/>
    <path id="Path_419" data-name="Path 419" d="M158.344,25.68l-5.384,9.154,5.748,3.376.8-.944-4.744-2.788,4.766-8.105Z" transform="translate(-35.378 -3.015)" fill="#b2b2b2"/>
    <rect id="Rectangle_531" data-name="Rectangle 531" width="10.618" height="1.368" transform="matrix(0.602, -0.798, 0.798, 0.602, 125.664, 36.961)" fill="#b2b2b2"/>
    <path id="Path_420" data-name="Path 420" d="M171.641,48.849a5.748,5.748,0,0,0,1.026,1.338,7.1,7.1,0,0,0,.84.7,5.036,5.036,0,0,0,.491.32c.156.089.312.171.476.245a5.844,5.844,0,0,0,1.041.387,4.907,4.907,0,0,0,1.086.156l2.974-3.026-2.826-2.788-.833.848,1.9,1.881-1.785,1.807a3.822,3.822,0,0,1-1.331-.454,5.621,5.621,0,0,1-1.212-.922,3.614,3.614,0,0,1-.885-1.309,2.907,2.907,0,0,1-.149-1.405,3.718,3.718,0,0,1,.513-1.443,7.019,7.019,0,0,1,1.108-1.42,6.878,6.878,0,0,1,1.413-1.13,4.135,4.135,0,0,1,1.428-.543,2.841,2.841,0,0,1,1.368.089,3.116,3.116,0,0,1,1.264.8,3.547,3.547,0,0,1,.677.87,2.045,2.045,0,0,1,.245.84,2.305,2.305,0,0,1-.1.833,4.462,4.462,0,0,1-.364.825l1.093.744a4.73,4.73,0,0,0,.535-1.219,3.347,3.347,0,0,0,.1-1.242,3.286,3.286,0,0,0-.394-1.257,5.2,5.2,0,0,0-.974-1.264,4.789,4.789,0,0,0-1.628-1.078,4.082,4.082,0,0,0-1.837-.29,5.131,5.131,0,0,0-1.933.558,7.279,7.279,0,0,0-1.926,1.443,7.941,7.941,0,0,0-1.413,1.9,4.862,4.862,0,0,0-.543,1.918,4.283,4.283,0,0,0,.335,1.866A4.36,4.36,0,0,0,171.641,48.849Z" transform="translate(-40.028 -6.873)" fill="#b2b2b2"/>
    <path id="Path_421" data-name="Path 421" d="M187.838,60.793l1-.706L185.8,55.855l2.714-1.941,3.2,4.476.982-.706-4-5.584-8.633,6.179,4.03,5.636L185.2,63.4l-3.361-4.707,2.974-2.127Z" transform="translate(-42.327 -9.79)" fill="#b2b2b2"/>
    <path id="Path_422" data-name="Path 422" d="M188.08,70.885l7.54-3.681-5.153,8.566.573,1.182,9.54-4.655-.573-1.19-7.585,3.7,5.213-8.551-.587-1.212L187.5,69.695Z" transform="translate(-44.235 -13.108)" fill="#b2b2b2"/>
    <path id="Path_423" data-name="Path 423" d="M194.83,86.63l.387,1.331,9.027-2.617.974,3.368,1.175-.335-2.335-8.068-1.175.335.974,3.376Z" transform="translate(-46.114 -17.023)" fill="#b2b2b2"/>
    <rect id="Rectangle_532" data-name="Rectangle 532" width="3.525" height="3.525" transform="translate(154.535 83) rotate(-2.65)" fill="#b2b2b2"/>
    <rect id="Rectangle_533" data-name="Rectangle 533" width="1.368" height="10.618" transform="translate(150.612 97.897) rotate(-81.58)" fill="#b2b2b2"/>
    <path id="Path_424" data-name="Path 424" d="M195.539,132.852l8.06,2.305-9.562,2.93-.357,1.257,10.209,2.915.364-1.272-8.105-2.313,9.592-2.878.372-1.3L195.9,131.58Z" transform="translate(-45.82 -30.17)" fill="#b2b2b2"/>
    <path id="Path_425" data-name="Path 425" d="M189.29,151.372l7.726,8.35.647-1.324-6.477-6.856,9.362,1.019.684-1.391-11.325-1.041Z" transform="translate(-44.694 -34.926)" fill="#b2b2b2"/>
    <rect id="Rectangle_534" data-name="Rectangle 534" width="1.362" height="10.573" transform="matrix(0.552, -0.834, 0.834, 0.552, 139.714, 123.483)" fill="#b2b2b2"/>
    <path id="Path_426" data-name="Path 426" d="M185.98,170.315a3.212,3.212,0,0,0-1.093-.662,2.134,2.134,0,0,0-1.078-.082,3.48,3.48,0,0,0-1.108.409,7.992,7.992,0,0,0-1.182.825l-1.056.863a3.935,3.935,0,0,1-.848.55,1.822,1.822,0,0,1-.744.186,1.3,1.3,0,0,1-.587-.126,2.483,2.483,0,0,1-.506-.335,2.171,2.171,0,0,1-.476-.573,1.435,1.435,0,0,1-.2-.7,1.889,1.889,0,0,1,.171-.84,3.867,3.867,0,0,1,.639-.989,3.718,3.718,0,0,1,1.755-1.272,2.305,2.305,0,0,1,1.8.379l.892-1.034a3.658,3.658,0,0,0-1.4-.654,2.974,2.974,0,0,0-1.376,0,3.86,3.86,0,0,0-1.182.55c-.045,0-.089.045-.126.074a7.042,7.042,0,0,0-1.249,1.175,5.384,5.384,0,0,0-.93,1.435h0a3.45,3.45,0,0,0-.3,1.346,2.707,2.707,0,0,0,.268,1.19,2.974,2.974,0,0,0,.744.967,2.8,2.8,0,0,0,2.112.8,4.841,4.841,0,0,0,2.365-1.167l1.175-.952a5.405,5.405,0,0,1,.788-.543,1.785,1.785,0,0,1,.662-.223,1.234,1.234,0,0,1,.595.082,2.231,2.231,0,0,1,.58.372,1.978,1.978,0,0,1,.431.535,1.368,1.368,0,0,1,.141.677,2.372,2.372,0,0,1-.238.84,4.885,4.885,0,0,1-.7,1.011,4.225,4.225,0,0,1-.8.744,2.172,2.172,0,0,1-.744.342,1.777,1.777,0,0,1-.744,0,3.458,3.458,0,0,1-.8-.29L181,176.36a5.659,5.659,0,0,0,1,.4,2.625,2.625,0,0,0,1.108.059,3.242,3.242,0,0,0,1.219-.468,5.71,5.71,0,0,0,1.324-1.19,6.268,6.268,0,0,0,.877-1.286,3.673,3.673,0,0,0,.387-1.294,2.751,2.751,0,0,0-.164-1.227A2.5,2.5,0,0,0,185.98,170.315Z" transform="translate(-41.235 -39.042)" fill="#b2b2b2"/>
    <rect id="Rectangle_535" data-name="Rectangle 535" width="1.368" height="10.618" transform="translate(130.156 135.19) rotate(-42.24)" fill="#b2b2b2"/>
    <path id="Path_427" data-name="Path 427" d="M161.407,182.364a5.852,5.852,0,0,0-1.331,1.227,3.116,3.116,0,0,0-.58,1.212,2.506,2.506,0,0,0,0,1.175,3.674,3.674,0,0,0,.535,1.1,3.348,3.348,0,0,0,.506.565,1.949,1.949,0,0,0,.639.4,2.625,2.625,0,0,0,.818.171,3.577,3.577,0,0,0,1-.112,2.528,2.528,0,0,0-.4,1.487,2.58,2.58,0,0,0,.483,1.264,3.235,3.235,0,0,0,.744.744,1.9,1.9,0,0,0,.974.372,3.205,3.205,0,0,0,1.279-.193,6.692,6.692,0,0,0,1.643-.9l2.878-2.03-6.127-8.678Zm7.48,6.335-1.747,1.234a3.435,3.435,0,0,1-1.785.744,1.383,1.383,0,0,1-1.175-.7,1.584,1.584,0,0,1-.32-1.346,2.655,2.655,0,0,1,1.153-1.353l1.933-1.368Zm-4.662-2.231a2.722,2.722,0,0,1-1.792.654,1.837,1.837,0,0,1-1.279-.855,2.6,2.6,0,0,1-.364-.744,1.227,1.227,0,0,1,0-.744,2.015,2.015,0,0,1,.409-.744,4.879,4.879,0,0,1,.915-.81l1.971-1.391,2.231,3.138Z" transform="translate(-37.036 -42.629)" fill="#b2b2b2"/>
    <path id="Path_428" data-name="Path 428" d="M146.34,190.96l.349,1.19,4.937-2.424,4.134,8.44,1.234-.6-4.677-9.533Z" transform="translate(-33.681 -44.644)" fill="#b2b2b2"/>
    <path id="Path_429" data-name="Path 429" d="M133.88,195.392l.149,1.212,5.525-1.71,1.086,3.495-4.975,1.539.357,1.167L141,199.549l.989,3.183-5.257,1.628.357,1.153,6.558-2.037L140.5,193.34Z" transform="translate(-30.486 -46.006)" fill="#b2b2b2"/>
    <rect id="Rectangle_536" data-name="Rectangle 536" width="3.525" height="3.525" transform="matrix(0.998, -0.066, 0.066, 0.998, 90.872, 154.384)" fill="#b2b2b2"/>
  </g>
</svg>
