<svg id="Group_162" data-name="Group 162" xmlns="http://www.w3.org/2000/svg" width="276" height="46.763" viewBox="0 0 276 46.763">
  <g id="Group_159" data-name="Group 159" transform="translate(114.528 9.07)">
    <path id="Path_16" data-name="Path 16" d="M92.652,28.642a2.124,2.124,0,0,1-.537,1.466,1.718,1.718,0,0,1-1.33.6h-15.2a1.739,1.739,0,0,1-1.314-.6,2.1,2.1,0,0,1-.55-1.466v-10.8a2.1,2.1,0,0,1,.55-1.474,1.737,1.737,0,0,1,1.314-.6h15.2a1.716,1.716,0,0,1,1.33.6,2.133,2.133,0,0,1,.537,1.474Zm3.4-16.539a7.873,7.873,0,0,0-2.378-1.767,6.607,6.607,0,0,0-2.884-.662h-15.2a6.8,6.8,0,0,0-2.884.642,7.7,7.7,0,0,0-2.378,1.729,8.206,8.206,0,0,0-1.621,2.6,8.494,8.494,0,0,0-.605,3.2v10.8a8.637,8.637,0,0,0,.584,3.176,8.375,8.375,0,0,0,1.611,2.6,7.6,7.6,0,0,0,2.375,1.749,6.805,6.805,0,0,0,2.92.637h15.2a6.779,6.779,0,0,0,2.932-.651A7.589,7.589,0,0,0,96.1,34.378a8.581,8.581,0,0,0,2.171-5.736v-10.8a8.277,8.277,0,0,0-.6-3.145,8.51,8.51,0,0,0-1.621-2.6" transform="translate(-68.093 -9.673)" fill="#161615"/>
  </g>
  <path id="Path_400" data-name="Path 400" d="M31.263,36.859h5.623V26.211H52.391V20.076H36.885V15.747h18.6V9.655H31.263Z" transform="translate(21.318 -0.619)" fill="#161615"/>
  <path id="Path_401" data-name="Path 401" d="M55.5,9.655H49.883v27.2H74.375V30.725H55.5Z" transform="translate(34.015 -0.619)" fill="#161615"/>
  <g id="Group_160" data-name="Group 160" transform="translate(148.794 9.069)">
    <path id="Path_19" data-name="Path 19" d="M126.8,9.673l-4.662,15.056c-.341,1.13-.669,2.29-.965,3.477s-.609,2.441-.933,3.747c-.432-1.655-.809-3.079-1.117-4.255s-.58-2.171-.811-2.969L113.966,9.673h-6.179l-4.311,15.056c-.481,1.657-.895,3.079-1.228,4.27s-.579,2.176-.742,2.954q-.482-1.96-.928-3.747c-.3-1.187-.621-2.347-.964-3.477L94.95,9.673H88.468L97.436,36.8h7.728L110.9,18.63,116.584,36.8h7.762l8.934-27.131Z" transform="translate(-88.468 -9.673)" fill="#161615"/>
    <path id="Path_20" data-name="Path 20" d="M167.555,22.54H151.792V15.769h15.763a1.729,1.729,0,0,1,1.309.6,2.1,2.1,0,0,1,.55,1.474v2.666a2.04,2.04,0,0,1-.55,1.428,1.723,1.723,0,0,1-1.309.6m1.2,6.1-.111-.123a6.15,6.15,0,0,0,1.8-.538,7.786,7.786,0,0,0,2.361-1.767,8.237,8.237,0,0,0,1.6-2.582,8.114,8.114,0,0,0,.59-3.121V17.844a8.554,8.554,0,0,0-2.193-5.742,7.97,7.97,0,0,0-2.361-1.767,6.543,6.543,0,0,0-2.895-.662H146.2V36.844h5.592v-8.2h9.447l7.136,8.162h7.93Z" transform="translate(-49.1 -9.673)" fill="#161615"/>
  </g>
  <rect id="Rectangle_520" data-name="Rectangle 520" width="5.619" height="27.204" transform="translate(231.29 9.036)" fill="#161615"/>
  <g id="Group_161" data-name="Group 161">
    <path id="Path_21" data-name="Path 21" d="M127.021,24.575a66.551,66.551,0,0,0,4.245-10.084,30.655,30.655,0,0,0,1.433,4.026q1.049,2.516,2.842,6.057Zm.834-14.9L114.814,36.8H121.3l2.76-6.094h14.453L141.27,36.8h6.447L134.679,9.673Z" transform="translate(78.292 -0.604)" fill="#161615"/>
    <path id="Path_22" data-name="Path 22" d="M28.493,25.054C28.238,18.874,40.029,5.1,35.567,4.812c-20.479-1.374-6.124,15.045-15.8,21.808-4.773,3.334-21.6-.921-19.6,3.446,9.155,20.042,15.013-1.741,25.217,4.022C30.417,36.934,35.444,54.967,37.908,50.9c11.329-18.673-8.887-13.322-9.415-25.845" transform="translate(0 -4.731)" fill="#161615"/>
  </g>
</svg>
