<svg xmlns="http://www.w3.org/2000/svg" width="284.407" height="34.134" viewBox="0 0 284.407 34.134">
  <g id="Group_207" data-name="Group 207" transform="translate(0 -0.001)">
    <g id="Group_202" data-name="Group 202">
      <path id="Path_453" data-name="Path 453" d="M208.13,13.041v-.035c0-2.43,3.277-3.478,8.318-3.478,5.215,0,8.507,1.284,8.618,4.018l.012.182h2.077l-.009-.135c-.264-3.96-4.308-5.824-10.707-5.824-6.417,0-10.445,1.674-10.445,5.144v.037c0,8.444,19.193,2.1,19.193,7.969v.035c0,2.363-3.371,3.653-8.792,3.653-5.636,0-8.382-1.188-8.654-4.069l-.024-.141H205.64l.02.151c.419,4.141,3.993,5.817,10.744,5.817,6.8,0,10.921-1.93,10.921-5.3v-.035c0-8.355-19.195-1.923-19.195-7.992" fill="#b2b2b2"/>
    </g>
    <rect id="Rectangle_567" data-name="Rectangle 567" width="2.091" height="34.133" transform="translate(231.449 0.001)" fill="#b2b2b2"/>
    <rect id="Rectangle_568" data-name="Rectangle 568" width="2.09" height="18.07" transform="translate(238.488 12.049)" fill="#b2b2b2"/>
    <rect id="Rectangle_569" data-name="Rectangle 569" width="2.144" height="4.016" transform="translate(238.46 4.016)" fill="#b2b2b2"/>
    <g id="Group_203" data-name="Group 203">
      <path id="Path_454" data-name="Path 454" d="M275.792,7.783c-4.746,0-8.539,1.714-10.238,4.911-.928-3.239-3.815-4.911-8.157-4.911-4.563,0-8.233,1.583-10.014,4.547v-4.3h-1.857V26.1h2.09V17.015c0-4.471,4.067-7.4,9.554-7.4,4.39,0,6.751,2.059,6.751,5.832V26.1h2.092V17.015c0-4.471,4.064-7.4,9.552-7.4,4.39,0,6.752,2.059,6.752,5.832V26.1h2.09V15.17c0-4.858-3.118-7.387-8.615-7.387" fill="#b2b2b2"/>
      <path id="Path_455" data-name="Path 455" d="M82.695,20.01a1.1,1.1,0,0,1-.319.8,1.063,1.063,0,0,1-.791.329H72.546a1.076,1.076,0,0,1-.781-.329,1.09,1.09,0,0,1-.327-.8V14.126a1.094,1.094,0,0,1,.327-.8,1.075,1.075,0,0,1,.781-.328h9.039a1.062,1.062,0,0,1,.791.328,1.107,1.107,0,0,1,.319.8ZM84.714,11a4.675,4.675,0,0,0-1.414-.963,4.227,4.227,0,0,0-1.715-.361H72.546a4.354,4.354,0,0,0-1.715.35,4.581,4.581,0,0,0-1.414.942,4.434,4.434,0,0,0-.964,1.419,4.292,4.292,0,0,0-.36,1.742V20.01a4.361,4.361,0,0,0,.347,1.731,4.489,4.489,0,0,0,2.37,2.37,4.358,4.358,0,0,0,1.736.347h9.039a4.34,4.34,0,0,0,1.743-.355,4.5,4.5,0,0,0,1.417-.967,4.6,4.6,0,0,0,.944-1.414,4.288,4.288,0,0,0,.347-1.712V14.126a4.183,4.183,0,0,0-.358-1.714A4.6,4.6,0,0,0,84.714,11" fill="#b2b2b2"/>
    </g>
    <path id="Path_456" data-name="Path 456" d="M31.263,24.48h3.343v-5.8h9.219V15.334H34.606V12.975H45.663V9.655h-14.4Z" fill="#b2b2b2"/>
    <path id="Path_457" data-name="Path 457" d="M53.225,9.655H49.883V24.48H64.445V21.137H53.225Z" fill="#b2b2b2"/>
    <g id="Group_204" data-name="Group 204">
      <path id="Path_458" data-name="Path 458" d="M111.258,9.673l-2.772,8.2c-.2.616-.4,1.248-.574,1.9s-.362,1.33-.555,2.042c-.257-.9-.481-1.678-.664-2.319s-.345-1.183-.482-1.618l-2.583-8.2H99.954l-2.563,8.2c-.286.9-.532,1.678-.73,2.327s-.344,1.186-.441,1.61q-.287-1.068-.552-2.042c-.181-.647-.369-1.279-.573-1.9l-2.773-8.2H88.468L93.8,24.458h4.595l3.408-9.9,3.382,9.9H109.8l5.312-14.785Z" fill="#b2b2b2"/>
      <path id="Path_459" data-name="Path 459" d="M158.9,16.685h-9.372v-3.69H158.9a1.07,1.07,0,0,1,.778.328,1.094,1.094,0,0,1,.327.8v1.453a1.118,1.118,0,0,1-1.1,1.106m.715,3.325-.066-.067a3.909,3.909,0,0,0,1.072-.293,4.62,4.62,0,0,0,1.4-.963,4.449,4.449,0,0,0,.953-1.407,4.1,4.1,0,0,0,.351-1.7V14.126a4.194,4.194,0,0,0-.351-1.714A4.451,4.451,0,0,0,162.022,11a4.729,4.729,0,0,0-1.4-.963,4.185,4.185,0,0,0-1.721-.361H146.2V24.48h3.325V20.01h5.617l4.243,4.448H164.1Z" fill="#b2b2b2"/>
    </g>
    <rect id="Rectangle_570" data-name="Rectangle 570" width="3.341" height="14.825" transform="translate(137.517 9.655)" fill="#b2b2b2"/>
    <g id="Group_205" data-name="Group 205">
      <path id="Path_460" data-name="Path 460" d="M122.072,17.794a34.645,34.645,0,0,0,2.524-5.5,15.8,15.8,0,0,0,.852,2.194q.624,1.371,1.69,3.3Zm.5-8.121-7.754,14.785h3.857l1.641-3.321H128.9l1.639,3.321h3.833L126.625,9.673Z" fill="#b2b2b2"/>
      <path id="Path_461" data-name="Path 461" d="M16.941,15.806C16.789,12.438,23.8,4.93,21.147,4.775c-12.176-.749-3.641,8.2-9.395,11.884C8.914,18.476-1.088,16.157.1,18.537c5.443,10.922,8.926-.949,14.993,2.192,2.995,1.551,5.984,11.378,7.449,9.161,6.736-10.176-5.284-7.26-5.6-14.084" fill="#b2b2b2"/>
    </g>
    <rect id="Rectangle_571" data-name="Rectangle 571" width="1.045" height="34.134" transform="translate(184.137 0.001)" fill="#b2b2b2"/>
  </g>
</svg>
