<svg id="Group_165" data-name="Group 165" xmlns="http://www.w3.org/2000/svg" width="138" height="59.801" viewBox="0 0 138 59.801">
  <g id="Group_163" data-name="Group 163" transform="translate(0 13.611)">
    <path id="Path_14" data-name="Path 14" d="M210,17.006v-.061c0-4.257,5.741-6.093,14.573-6.093,9.137,0,14.9,2.25,15.1,7.04l.021.319h3.639l-.016-.237c-.462-6.938-7.548-10.2-18.759-10.2-11.243,0-18.3,2.933-18.3,9.012v.065c0,14.794,33.626,3.672,33.626,13.962v.061c0,4.14-5.906,6.4-15.4,6.4-9.874,0-14.685-2.081-15.162-7.129l-.042-.247H205.64l.035.265c.734,7.255,7,10.191,18.823,10.191,11.912,0,19.134-3.381,19.134-9.28v-.061c0-14.638-33.63-3.369-33.63-14" transform="translate(-205.64 -7.769)" fill="#161615"/>
  </g>
  <rect id="Rectangle_521" data-name="Rectangle 521" width="3.663" height="59.801" transform="translate(45.218)" fill="#161615"/>
  <rect id="Rectangle_522" data-name="Rectangle 522" width="3.662" height="31.659" transform="translate(57.55 21.108)" fill="#161615"/>
  <rect id="Rectangle_523" data-name="Rectangle 523" width="3.756" height="7.036" transform="translate(57.501 7.034)" fill="#161615"/>
  <g id="Group_164" data-name="Group 164" transform="translate(69.881 13.634)">
    <path id="Path_15" data-name="Path 15" d="M298.552,7.783c-8.315,0-14.96,3-17.937,8.6-1.626-5.675-6.684-8.6-14.291-8.6-7.994,0-14.424,2.773-17.544,7.966V8.219h-3.253V39.88h3.662V23.957c0-7.833,7.125-12.974,16.739-12.974,7.691,0,11.828,3.607,11.828,10.218V39.88h3.665V23.957c0-7.833,7.12-12.974,16.735-12.974,7.691,0,11.829,3.607,11.829,10.218V39.88h3.662V20.725c0-8.511-5.463-12.942-15.094-12.942" transform="translate(-245.526 -7.783)" fill="#161615"/>
  </g>
</svg>
