<?xml version="1.0" standalone="no"?>
<!DOCTYPE svg PUBLIC "-//W3C//DTD SVG 20010904//EN"
 "http://www.w3.org/TR/2001/REC-SVG-20010904/DTD/svg10.dtd">
<svg version="1.0" xmlns="http://www.w3.org/2000/svg"
 width="300.000000pt" height="300.000000pt" viewBox="0 0 300.000000 300.000000"
 preserveAspectRatio="xMidYMid meet">
<metadata>
Created by potrace 1.11, written by Peter Selinger 2001-2013
</metadata>
<g transform="translate(0.000000,300.000000) scale(0.100000,-0.100000)"
fill="#000000" stroke="none">
<path d="M2090 2729 c-124 -9 -164 -16 -228 -43 -110 -46 -178 -134 -200 -256
-6 -30 -11 -140 -12 -245 -2 -228 -4 -259 -20 -327 -27 -116 -107 -232 -194
-283 -46 -26 -139 -53 -213 -60 -58 -5 -221 -7 -473 -6 -208 2 -262 -3 -305
-28 -45 -25 -43 -55 11 -162 161 -321 319 -429 513 -352 36 14 120 60 186 101
221 139 278 163 390 167 87 3 176 -26 243 -80 27 -22 111 -134 154 -205 25
-41 96 -174 157 -294 160 -312 210 -386 262 -386 23 0 55 43 113 154 110 208
138 380 83 501 -31 67 -94 133 -183 190 -213 138 -285 189 -330 234 -127 130
-164 312 -99 491 26 71 120 268 170 355 59 101 89 158 145 268 32 64 57 117
54 117 -3 0 0 8 5 18 17 33 21 88 7 108 -17 23 -103 32 -236 23z"/>
</g>
</svg>
