<svg xmlns="http://www.w3.org/2000/svg" width="1903.587" height="612.341"><g data-name="Group 78"><path data-name="Path 80" d="M1116.343 488.842c15.407 4.373 25.26 11.494 24.8 19.469-.747 13.021-28.683 23.258-62.191 22.869-33.284-.386-59.505-11.124-58.767-23.986.266-4.624 3.982-8.911 10.181-12.494" fill="none" stroke="#000" stroke-miterlimit="10" stroke-width="1.5"/><path data-name="Path 82" d="M367.752 414.674c-143.326 6.4-281.021-17.183-367.605-34.517" fill="none" stroke="#000" stroke-miterlimit="10" stroke-width="1.5"/><path data-name="Path 83" d="M730.604 393.557c-40.955 7.448-84.941 13.322-129.675 17.415" fill="none" stroke="#000" stroke-miterlimit="10" stroke-width="1.5"/><path data-name="Path 84" d="M1279.455 333.555l-87.673 10.662-13.5-3.3-1.114-246.753" fill="none" stroke="#000" stroke-miterlimit="10" stroke-width="1.5"/><path data-name="Path 85" d="M1903.14 344.105c-98.578-73.183-299.185-63.226-361.99-61.381" fill="none" stroke="#000" stroke-miterlimit="10" stroke-width="1.5"/><g data-name="Group 67"><g data-name="Group 66" fill="none" stroke="#000" stroke-miterlimit="10" stroke-width="1.5"><path data-name="Path 87" d="M717.796 242.721c-5.825-6.762-13.021-11.7-21.961-13.794-45.941-10.761 31.591 159.152 89.76 158.285 26.352-.394 46.6-20.752 46.6-20.752"/><path data-name="Path 88" d="M779.296 353.777c-51.657.9-33.541-78.593-61.5-111.056"/><path data-name="Path 89" d="M781.858 387.27a37.5 37.5 0 011.714 12.081c-.495 7.927-34.876 5.015-35.26 11.194-.58 9.334 78.2 8.053 78.776-1.135.368-5.916-35.543-3.066-35.1-10.185.336-5.4 2.5-11.06 3.388-13.311"/><path data-name="Path 90" d="M736.36 238.571c-13.025 2.513-22.589-1-27.308-3.786"/><path data-name="Path 91" d="M776.025 177.748c-2.3 5.813-5.765 17.33-6.026 38.494-.237 19.2-33.857-2.155-33.641 22.329s15.137 90.358 47.66 106.793c34.574 17.47 36.19-34.9 38.065-36.8 0 0 7.318-15.93 18.189-15.355s32.583 101.895 37.193 105.075 37.44 26.125 25.172 27.5c-10.761 1.208-27.918-9.932-30.591-19.527-2.38-8.545-50.863-49.365-44.649-87.08"/><path data-name="Path 92" d="M770.085 316.373s39.29-46.185 75.383-50.04c36.23-3.869 17.368 55.186 48.343 63.066 10.127-3.329 17.584-3.47 33.391-12.136 13.546-.528-12.68 21.018-24.736 26.774-9.39 4.483-11.679-.179-13.552-4.237s-29.2-13.893-39.513-32.014"/><path data-name="Path 93" d="M779.788 196.812c5.436 7.024 20.3 9.254 23.169 7.551 4.4-2.615 10.417-62.458-30.157-46.742-33.426 12.947-1.526 35.248-1.526 35.248s-6.878-5.094-17.145 2.979 9.769 14.66 9.769 14.66-.595-8.862 6.183-10.427"/><path data-name="Path 94" d="M788.385 202.596c-1.652 6.881-4.288 17.829.784 20.632s12.067-2.566 23.1 6.1"/><path data-name="Path 95" d="M758.095 246.912s4.106 34.585 21.968 38.336c12.195 2.561 17.858-45.092 35.041-50.743 2.813-.067 3.706 2.576 6.175 2.335 6.755-1.307 4.5 11.189-2.157 16.565-3.493-.294-8.851-3.249-12.094 3.769s-2.557 25.633-8.478 32.109"/><path data-name="Path 96" d="M850.089 226.017c-.344 2.544-7.234 4.777-15.8 4.982s-15.356-1.691-15.2-4.234 7.221-4.848 15.771-4.981c9.36-.145 15.57 1.701 15.229 4.233z"/><path data-name="Path 97" d="M844.027 252.879a18.748 18.748 0 01-11.35 4.12c-5.8.131-10.006-.983-12.11-4.946"/><path data-name="Path 98" d="M851.315 231.073c-3.451.681-13.2 10.019-7.464 9.151 3.512-.532-1.275 7.761 2.33 8.029 3.482.257 8.582-17.861 5.134-17.18z"/><path data-name="Line 11" d="M819.074 227.115l-.504 8.096"/><path data-name="Path 99" d="M761.44 261.866c-5.744-.183-16.458 7.289-19.159 14.368"/><path data-name="Path 100" d="M830.388 192.523c-4.664 4.759.826 7.83 1.856 13.156s-4.035 11.164-5.038 11.9"/><path data-name="Path 101" d="M847.429 198.209c3.021 4.653 2.48 12.453-.546 15.572"/><path data-name="Path 102" d="M840.576 184.814c-4.668 4.763-.251 10.385.78 15.714s-2.834 12.255-3.837 12.994"/><path data-name="Path 103" d="M795.379 224.116a8.965 8.965 0 013.693 2.3c2.4 3.027-4.156 5.684-14.635 5.933s-20.883-2-23.272-5.017a1.725 1.725 0 01-.2-2.165"/></g></g><path data-name="Path 104" d="M1193.515 344.012l-.209-288.206-147.886-2.054.476 302.75-174.15 23.657" fill="none" stroke="#000" stroke-miterlimit="10" stroke-width="1.5"/><path data-name="Path 105" d="M1097.138 25.327s-20.7 5.756-26.174 7.239" fill="none" stroke="#000" stroke-miterlimit="10" stroke-width="1.5"/><path data-name="Path 106" d="M1055.044.772c42.094 1.956 137.774 14.326 137.774 14.326l26.1 9.4v8.889l-24.632 8.125-139.241-1.985" fill="none" stroke="#000" stroke-miterlimit="10" stroke-width="1.5"/><g data-name="Group 70"><g data-name="Group 69"><g data-name="Group 68" fill="none" stroke="#000" stroke-miterlimit="10" stroke-width="1.5"><path data-name="Path 108" d="M1455.582 474.057c43.571-22.664 83.145-91.423 85.427-122.121s-28.089-25.908-41.828-41.686c-11.8-13.551-3.494-28.852-3.494-28.852s21.217-34.17-7.721-45.379c-49.966-19.356-44.985 61.054-39.514 63.926 2.274 1.194 11-.024 19-3.456"/><path data-name="Path 109" d="M1355.863 452.812c4.935 46.162-62.039 75.664-61.448 86.8.663 12.5-13.01 7.61-26.456 8.9-46.615 4.49-66.081-31.5 7.732-14.513 6.96 1.6 51.491-111.409 67.261-119.068 15.8-7.669 23.578-1.028 34.1 7.308"/><path data-name="Path 110" d="M1466.008 285.389c1.587 8.429-.458 33.193-7.256 37.108s-15.392-2.185-30.311 9.5c0 0-21.473 20.777-12.49 74.718 8.993 53.986-29.006 8.093-33.335 1.237s-18.437-5.8-24.7 3.8"/><path data-name="Path 111" d="M1380.223 330.996c.235 3.115 8.861 5.315 19.8 4.87s19.841-3.352 19.841-6.492-8.888-5.414-19.841-4.869c-11.955.595-20.035 3.39-19.8 6.491z"/><path data-name="Path 112" d="M1415.952 360.852c-3.019 5.075-8.508 6.785-15.929 7.074s-12.838-2.949-14.193-4.211l-5.607-32.719"/><path data-name="Line 12" d="M1419.863 329.807v10.001"/><path data-name="Path 113" d="M1408.097 287.876c5.606 5.494-1.683 9.774-3.427 16.462s4.283 13.49 5.51 14.322"/><path data-name="Path 114" d="M1385.83 296.39c-4.228 6.013-4.157 15.609-.541 19.212"/><path data-name="Path 115" d="M1395.656 279.22c5.6 5.488-.505 12.834-2.249 19.519s2.65 14.928 3.876 15.759"/><path data-name="Path 116" d="M1409.395 465.995c15.261 10.56 37.141 5.139 43.528-8.813 13.819-30.189 7.009-84 26.609-116.038a20.056 20.056 0 0115.292-9.377c21.658-2.021 76.05-7.277 85.607-9.977 62-17.52-54.627 201.963-130.252 204.377-33.926 1.084-85.088-44.043-94.315-73.354"/></g></g><path data-name="Path 117" d="M1399.565 505.395c-22.537 20.044-67 25.35-66.569 33.454.666 12.521-13.058 7.625-26.554 8.922" fill="none" stroke="#000" stroke-miterlimit="10" stroke-width="1.5"/></g><path data-name="Path 118" d="M1093.079 448.272c-1.117 3.273-6.035 40.223-6.035 48.026 0 0-2.43 2.6-7.448 2.582" fill="none" stroke="#000" stroke-miterlimit="10" stroke-width="1.5"/><path data-name="Path 119" d="M1067.438 448.272s7.15 40.054 7.15 48.432" fill="#fff" stroke="#000" stroke-miterlimit="10" stroke-width="1.5"/><path data-name="Path 120" d="M1484.52 543.967c18.056 6.3 31.38 16.191 34.6 27.8 6.144 22.191-26.567 40.91-72.248 39.765-44.214-1.108-77.97-20.416-76.772-41.309.5-8.8 7.232-16.6 18-22.463" fill="none" stroke="#000" stroke-miterlimit="10" stroke-width="1.5"/><path data-name="Path 121" d="M1454.98 525.73c-1.591 12.012-3.131 25.616-3.131 30.1 0 0-2.377 2.544-7.279 2.713" fill="none" stroke="#000" stroke-miterlimit="10" stroke-width="1.5"/><path data-name="Path 122" d="M1434.231 523.02c2.09 12.657 4.486 28.254 4.486 33.234" fill="#fff" stroke="#000" stroke-miterlimit="10" stroke-width="1.5"/><g data-name="Group 71"><path data-name="Path 123" d="M1073.106 448.44c-64.161-1.428-114.974-17.995-113.883-37.01s53.684-33.465 117.858-32.268c64.607 1.2 116.408 17.791 115.3 37.039s-54.682 33.678-119.275 32.239z" fill="none" stroke="#000" stroke-miterlimit="10" stroke-width="1.5"/></g><path data-name="Path 124" d="M453.54 488.842c-15.407 4.373-25.26 11.494-24.8 19.469.747 13.021 28.683 23.258 62.191 22.869 33.284-.386 59.505-11.124 58.767-23.986-.266-4.624-3.982-8.911-10.182-12.494" fill="none" stroke="#000" stroke-miterlimit="10" stroke-width="1.5"/><path data-name="Path 125" d="M503.168 447.129c-1.233 3.266-7.638 41.258-7.913 49.039a6.922 6.922 0 01-4.8 1.809" fill="none" stroke="#000" stroke-miterlimit="10" stroke-width="1.5"/><path data-name="Path 126" d="M478.735 446.875s5.737 39.95 5.442 48.306" fill="#fff" stroke="#000" stroke-miterlimit="10" stroke-width="1.5"/><g data-name="Group 72"><path data-name="Path 127" d="M482.727 447.114c-64.175.552-115.474-14.439-114.971-33.479s52.627-35.107 116.807-35.891c64.613-.789 116.9 14.193 116.39 33.465s-53.619 35.35-118.226 35.905z" fill="none" stroke="#000" stroke-miterlimit="10" stroke-width="1.5"/></g><g data-name="Group 74"><g data-name="Group 73" fill="none" stroke="#000" stroke-miterlimit="10" stroke-width="1.5"><path data-name="Path 128" d="M467.027 362.129l4.488 35.882c3.006 5.4 10.644 7.171 19.183 6.855a23.607 23.607 0 0015.5-6.187l6.483-38.849"/><path data-name="Path 129" d="M512.682 359.826c-.273 3.674-10.239 7.051-22.854 7.543-12.6.49-22.8-2.083-22.8-5.747s10.2-7.15 22.8-7.54c13.788-.425 23.127 2.09 22.854 5.744z"/><path data-name="Path 130" d="M490.143 354.204c.727-1.655-33.969-27.122-31.616-36.359 0 0 19.693-2.336 28.029 11.949s3.587 24.41 3.587 24.41z"/><path data-name="Path 131" d="M491.32 349.428c-1.992-27 12.138-46.956 33.823-40.726 0-.003-31.829 32.943-33.823 40.726z"/><path data-name="Path 132" d="M488.693 333.971c.635-2.466 14.988-44.91 7.961-50.664 0 0-14.6 6.549-15.823 23.446-1.169 16.156 5.19 21.446 7.862 27.218z"/></g></g><g data-name="Group 77"><g data-name="Group 75"><path data-name="Path 133" d="M452.389 419.72c-.235 3.563-9.882 6.46-22.124 6.448-12.227-.012-22.149-2.913-22.178-6.479s9.844-6.558 22.071-6.448c13.382.122 22.467 2.932 22.231 6.479z" fill="none" stroke="#000" stroke-miterlimit="10" stroke-width="1.5"/></g><g data-name="Group 76" fill="none" stroke="#000" stroke-miterlimit="10" stroke-width="1.5"><path data-name="Path 134" d="M419.497 398.552l2.455 18.557c1.8 2.984 5.052 3.893 9.436 3.907a13.092 13.092 0 008.384-2.846l3.167-19.858"/><path data-name="Path 135" d="M442.936 398.311c-.125 1.885-5.23 3.417-11.708 3.409s-11.719-1.542-11.735-3.429 5.211-3.468 11.681-3.409c7.08.064 11.888 1.553 11.762 3.429z"/></g></g><path data-name="Path 139" d="M1204.045 32.122l-106.907-6.795V14.983l-31.822-12.462c-4.161-1.188-7.824-1.907-10.272-1.749-10.283.67-18.609 9.878-18.609 20.566s8.326 18.835 18.609 18.193" fill="none" stroke="#000" stroke-miterlimit="10" stroke-width="1.5"/></g></svg>