<svg xmlns="http://www.w3.org/2000/svg" viewBox="0 0 61.5 491.9"><path d="M7.8.2c-9.4 38.6-9.4 84.3 0 122.9m0 122.8c9.4-38.6 9.4-84.3 0-122.9m0 122.9c-9.4 38.6-9.4 84.3 0 122.9m0 122.9c9.4-38.6 9.4-84.3 0-122.9M30.7.2c-9.4 38.6-9.4 84.3 0 122.9m0 122.8c9.4-38.6 9.4-84.3 0-122.9m0 122.9c-9.4 38.6-9.4 84.3 0 122.9m0 122.9c9.4-38.6 9.4-84.3 0-122.9M53.7.2c-9.4 38.6-9.4 84.3 0 122.9m0 122.8c9.4-38.6 9.4-84.3 0-122.9m0 122.9c-9.4 38.6-9.4 84.3 0 122.9m0 122.9c9.4-38.6 9.4-84.3 0-122.9" fill="none" stroke="#020203" stroke-width="1.5" stroke-miterlimit="10"/></svg>