<?xml version="1.0" encoding="utf-8"?>
<!-- Generator: Adobe Illustrator 24.2.3, SVG Export Plug-In . SVG Version: 6.00 Build 0)  -->
<svg version="1.1" id="Layer_1" xmlns="http://www.w3.org/2000/svg" xmlns:xlink="http://www.w3.org/1999/xlink" x="0px" y="0px"
	 viewBox="0 0 25.2 35.2" style="enable-background:new 0 0 25.2 35.2;" xml:space="preserve">
<g id="doc" transform="translate(-2908.714 -1273.176)">
	<g id="Rectangle_576">
		<path d="M2929.7,1308.4H2913c-2.4,0-4.3-1.9-4.3-4.3v-26.7c0-2.4,1.9-4.3,4.3-4.3h16.7c2.4,0,4.3,1.9,4.3,4.3v26.7
			C2934,1306.5,2932,1308.4,2929.7,1308.4z M2913,1274.7c-1.5,0-2.8,1.3-2.8,2.8v26.7c0,1.5,1.3,2.8,2.8,2.8h16.7
			c1.5,0,2.8-1.3,2.8-2.8v-26.7c0-1.5-1.3-2.8-2.8-2.8H2913z"/>
	</g>
	<g id="Group_211" transform="translate(2913.839 1280.801)">
		<g id="Path_464">
			<path d="M11.9,3.9H1.2c-1.1,0-2-0.9-2-2V1.2c0-1.1,0.9-2,2-2h14.4v1.5H1.2C1,0.8,0.8,1,0.8,1.2v0.6c0,0.3,0.2,0.5,0.5,0.5h10.6
				V3.9z"/>
		</g>
	</g>
	<g id="Group_212" transform="translate(2913.839 1287.676)">
		<g id="Path_465">
			<path d="M11.9,3.9H1.2c-1.1,0-2-0.9-2-2V1.2c0-1.1,0.9-2,2-2h14.4v1.5H1.2C1,0.8,0.8,1,0.8,1.2v0.6c0,0.3,0.2,0.5,0.5,0.5h10.6
				V3.9z"/>
		</g>
	</g>
	<g id="Group_213" transform="translate(2913.839 1294.551)">
		<g id="Path_466">
			<path d="M11.9,3.9H1.2c-1.1,0-2-0.9-2-2V1.2c0-1.1,0.9-2,2-2h14.4v1.5H1.2C1,0.8,0.8,1,0.8,1.2v0.6c0,0.3,0.2,0.5,0.5,0.5h10.6
				V3.9z"/>
		</g>
	</g>
</g>
</svg>
