<?xml version="1.0" encoding="utf-8"?>
<!-- Generator: Adobe Illustrator 24.2.3, SVG Export Plug-In . SVG Version: 6.00 Build 0)  -->
<svg version="1.1" id="Layer_1" xmlns="http://www.w3.org/2000/svg" xmlns:xlink="http://www.w3.org/1999/xlink" x="0px" y="0px"
	 viewBox="0 0 31.5 36.5" style="enable-background:new 0 0 31.5 36.5;" xml:space="preserve">
<g id="download" transform="translate(-2650.471 -1270.675)">
	<g id="Rectangle_575">
		<path d="M2678.7,1307.2h-25c-1.8,0-3.2-1.5-3.2-3.2s1.5-3.2,3.2-3.2h25c1.8,0,3.2,1.5,3.2,3.2S2680.5,1307.2,2678.7,1307.2z
			 M2653.7,1302.2c-1,0-1.8,0.8-1.8,1.8s0.8,1.8,1.8,1.8h25c1,0,1.8-0.8,1.8-1.8s-0.8-1.8-1.8-1.8H2653.7z"/>
	</g>
	<g id="Path_462">
		<path d="M2666.2,1297.9c-0.5,0-1-0.2-1.4-0.6l-8.5-8.5c-0.2-0.2-0.3-0.5-0.2-0.8s0.4-0.5,0.7-0.5h4.9v-14.9c0-1.1,0.9-2,2-2h5
			c1.1,0,2,0.9,2,2v14.9h4.9c0.3,0,0.6,0.2,0.7,0.5c0.1,0.3,0.1,0.6-0.2,0.8l-8.5,8.5C2667.3,1297.7,2666.8,1297.9,2666.2,1297.9z
			 M2658.7,1289.1l7.2,7.2c0.2,0.2,0.5,0.2,0.7,0l7.2-7.2h-3.8c-0.4,0-0.8-0.3-0.8-0.8v-15.6c0-0.3-0.2-0.5-0.5-0.5h-5
			c-0.3,0-0.5,0.2-0.5,0.5v15.6c0,0.4-0.3,0.8-0.8,0.8H2658.7z"/>
	</g>
</g>
</svg>
