<?xml version="1.0" encoding="utf-8"?>
<!-- Generator: Adobe Illustrator 24.2.3, SVG Export Plug-In . SVG Version: 6.00 Build 0)  -->
<svg version="1.1" id="Layer_1" xmlns="http://www.w3.org/2000/svg" xmlns:xlink="http://www.w3.org/1999/xlink" x="0px" y="0px"
	 viewBox="0 0 239.2 234.5" style="enable-background:new 0 0 239.2 234.5;" xml:space="preserve">
<g id="Group_197" transform="translate(0.75 0.75)">
	<g id="Group_193" transform="translate(0)">
		<g id="Rectangle_563">
			<path d="M185.9,32.6H0c-0.4,0-0.8-0.3-0.8-0.8V20.1c0-0.4,0.3-0.8,0.8-0.8h185.9c0.4,0,0.8,0.3,0.8,0.8v11.7
				C186.7,32.3,186.3,32.6,185.9,32.6z M0.8,31.1h184.4V20.9H0.8V31.1z"/>
		</g>
		<g id="Path_445">
			<path d="M176.6,17H9.3c-0.2,0-0.5-0.1-0.6-0.3l-2.8-3.8H0c-0.4,0-0.8-0.3-0.8-0.8V0c0-0.4,0.3-0.8,0.8-0.8h185.9
				c0.4,0,0.8,0.3,0.8,0.8v12.2c0,0.4-0.3,0.8-0.8,0.8H180l-2.8,3.8C177.1,16.9,176.8,17,176.6,17z M9.7,15.5h166.5l2.8-3.8
				c0.1-0.2,0.4-0.3,0.6-0.3h5.6V0.8H0.7v10.7h5.6c0.2,0,0.5,0.1,0.6,0.3L9.7,15.5z"/>
		</g>
	</g>
	<g id="Group_198" transform="translate(237.689 49.942) rotate(90)">
		<g id="Rectangle_563-2">
			<path d="M183.8,20.1v11.7c0,0.4-0.3,0.8-0.8,0.8H0c-0.4,0-0.8-0.3-0.8-0.8V20.1c0-0.4,0.3-0.8,0.8-0.8h183
				C183.4,19.4,183.8,19.7,183.8,20.1z M182.3,31.1V20.9H0.7v10.2H182.3z"/>
		</g>
		<g id="Path_445-2">
			<path d="M183.8,0v12.2c0,0.4-0.3,0.8-0.8,0.8h-5.8l-2.7,3.8c-0.1,0.2-0.4,0.3-0.6,0.3H9.2c-0.2,0-0.5-0.1-0.6-0.3l-2.7-3.8H0
				c-0.4,0-0.8-0.3-0.8-0.8V0c0-0.4,0.3-0.8,0.8-0.8h183C183.4-0.8,183.8-0.4,183.8,0z M182.3,11.4V0.7H0.7v10.7h5.5
				c0.2,0,0.5,0.1,0.6,0.3l2.7,3.8h163.9l2.7-3.8c0.1-0.2,0.4-0.3,0.6-0.3H182.3z"/>
		</g>
	</g>
	<g id="Path_450">
		<path d="M84.7,233.7c-0.4,0-0.8-0.3-0.8-0.8V58.2H9V233c0,0.4-0.3,0.8-0.8,0.8s-0.8-0.3-0.8-0.8V57.5c0-0.4,0.3-0.8,0.8-0.8h76.5
			c0.4,0,0.8,0.3,0.8,0.8V233C85.5,233.4,85.2,233.7,84.7,233.7z"/>
	</g>
	<g id="Rectangle_564">
		<path d="M93,233.7H0c-0.4,0-0.8-0.3-0.8-0.8V49.7c0-0.4,0.3-0.8,0.8-0.8h93c0.4,0,0.8,0.3,0.8,0.8V233
			C93.7,233.4,93.4,233.7,93,233.7z M0.8,232.2h91.5V50.4H0.8V232.2z"/>
	</g>
	<g id="Path_451">
		<path d="M177.7,233.7c-0.4,0-0.8-0.3-0.8-0.8V58.2h-75V233c0,0.4-0.3,0.8-0.8,0.8s-0.8-0.3-0.8-0.8V57.5c0-0.4,0.3-0.8,0.8-0.8
			h76.5c0.4,0,0.8,0.3,0.8,0.8V233C178.4,233.4,178.1,233.7,177.7,233.7z"/>
	</g>
	<g id="Path_452">
		<path d="M185.9,233.7H93c-0.4,0-0.8-0.3-0.8-0.8s0.3-0.8,0.8-0.8h92.2V50.4H93c-0.4,0-0.8-0.3-0.8-0.8s0.3-0.8,0.8-0.8h93
			c0.4,0,0.8,0.3,0.8,0.8V233C186.7,233.4,186.3,233.7,185.9,233.7z"/>
	</g>
</g>
</svg>
