<svg id="Slim_ikony_PIR" xmlns="http://www.w3.org/2000/svg" width="55" height="54.999" viewBox="0 0 55 54.999">
  <path id="Path_432" data-name="Path 432" d="M16.112,58.228l-.038,1.121,4.752.165h.019a.57.57,0,0,0,.383-.149.561.561,0,0,0,.177-.393l.168-4.752-1.125-.038-.117,3.424A26.365,26.365,0,1,1,59.473,57.6l-.12-3.424-1.121.038.165,4.752a.561.561,0,0,0,.561.542h.022l4.752-.165-.038-1.121-3.386.117a27.5,27.5,0,1,0-40.808.006Z" transform="translate(-12.4 -12.403)"/>
  <path id="Path_433" data-name="Path 433" d="M69.822,70.817c.649-.117,1.343-.222,2.059-.317s1.508-.136,2.287-.181a45.389,45.389,0,0,1,4.913,0c.782.044,1.549.108,2.284.193s1.413.187,2.059.317,1.239.253,1.783.4a12.653,12.653,0,0,1,1.445.478l.421-1.042a14.277,14.277,0,0,0-1.584-.52c-.573-.155-1.2-.3-1.872-.421s-1.394-.231-2.135-.317-1.549-.155-2.351-.2a46.119,46.119,0,0,0-5.04,0c-.8.044-1.584.111-2.351.2s-1.46.193-2.135.317-1.3.266-1.872.421a14.054,14.054,0,0,0-1.584.52l.421,1.042a12.443,12.443,0,0,1,1.445-.478C68.583,71.071,69.182,70.938,69.822,70.817Z" transform="translate(-49.123 -51.168)"/>
  <path id="Path_434" data-name="Path 434" d="M56.041,63.343H54.92a2.157,2.157,0,0,0,1.242,1.733,12.906,12.906,0,0,0,25.577,0,2.138,2.138,0,0,0,1.242-1.733h0V58.851h0c0-2.582-7.058-3.931-14.03-3.931s-14.03,1.349-14.03,3.931h0V63.34h1.121V58.851c0-1.144,5.03-2.81,12.909-2.81s12.922,1.666,12.922,2.81V63.34h0c0,.25-.339.586-.909.9l-.025.016a.423.423,0,0,0-.06.044l-.035.032a.583.583,0,0,0-.044.044l-.025.038a.516.516,0,0,0-.035.054v.041a.341.341,0,0,0-.025.06v.162a11.819,11.819,0,0,1-23.464,0v-.063a.554.554,0,0,0-.288-.428h0C56.384,63.929,56.041,63.593,56.041,63.343Z" transform="translate(-41.45 -41.451)"/>
  <path id="Path_435" data-name="Path 435" d="M80.354,167.38a26.293,26.293,0,0,1-30.24,0l-.634.925a27.449,27.449,0,0,0,31.532,0Z" transform="translate(-37.734 -118.286)"/>
  <path id="Path_436" data-name="Path 436" d="M61.64,150.9a20.7,20.7,0,0,0,23.806,0l-.634-.919a19.58,19.58,0,0,1-22.517,0Z" transform="translate(-46.042 -106.398)"/>
  <path id="Path_437" data-name="Path 437" d="M89.954,133.489l-.634-.919a12.861,12.861,0,0,1-14.8,0l-.634.919a13.983,13.983,0,0,0,16.083,0Z" transform="translate(-54.411 -94.503)"/>
</svg>
