<svg id="Slim_ikony_Montaz" xmlns="http://www.w3.org/2000/svg" width="55" height="55" viewBox="0 0 55 55">
  <path id="Path_438" data-name="Path 438" d="M39.9,67.451a27.5,27.5,0,1,0-19.452-8.043A27.5,27.5,0,0,0,39.9,67.451ZM21.238,21.289a26.3,26.3,0,1,1-7.765,18.66,26.389,26.389,0,0,1,7.765-18.66Z" transform="translate(-12.38 -12.451)"/>
  <path id="Path_439" data-name="Path 439" d="M58.167,79.573a3.917,3.917,0,0,0,2.779-1.15L73.074,66.294a.57.57,0,0,1,.551-.139A8.424,8.424,0,0,0,84.017,56.2a1.109,1.109,0,0,0-.776-.83h-.057a1.119,1.119,0,0,0-1.055.295l-3.565,3.543a.574.574,0,0,1-.792,0L74.6,56.039a.555.555,0,0,1-.165-.4.548.548,0,0,1,.165-.4l3.553-3.553a1.128,1.128,0,0,0,.295-1.058.269.269,0,0,0,0-.054,1.109,1.109,0,0,0-.837-.786,8.424,8.424,0,0,0-9.957,10.388.57.57,0,0,1-.139.555L55.388,72.857a3.93,3.93,0,0,0,2.779,6.709Zm-1.984-5.914L68.308,61.531a1.623,1.623,0,0,0,.282-.38,1.7,1.7,0,0,0,.152-1.268,7.289,7.289,0,0,1,8.62-9.007L73.81,54.442a1.689,1.689,0,0,0,0,2.383l3.169,3.169a1.683,1.683,0,0,0,2.383,0l3.559-3.553a7.289,7.289,0,0,1-9.007,8.629,1.7,1.7,0,0,0-1.635.431L60.151,77.627a2.806,2.806,0,0,1-3.968-3.968Z" transform="translate(-40.971 -37.823)"/>
</svg>
