<?xml version="1.0" encoding="utf-8"?>
<!-- Generator: Adobe Illustrator 24.2.3, SVG Export Plug-In . SVG Version: 6.00 Build 0)  -->
<svg version="1.1" id="Layer_1" xmlns="http://www.w3.org/2000/svg" xmlns:xlink="http://www.w3.org/1999/xlink" x="0px" y="0px"
	 viewBox="0 0 33.7 33.7" style="enable-background:new 0 0 33.7 33.7;" xml:space="preserve">
<g id="tools" transform="translate(0.75 0.788)">
	<g id="Path_463">
		<path d="M3.7,32.9c-1.2,0-2.3-0.4-3.2-1.3c-1.8-1.8-1.8-4.6,0-6.4l13.5-13.5c0.1-0.1,0.2-0.3,0.1-0.5c-0.4-1.5-0.4-3-0.1-4.5
			c1.1-5.1,6.2-8.4,11.3-7.2c0.3,0.1,0.5,0.2,0.7,0.4c0.3,0.3,0.4,0.6,0.4,1c0,0.4-0.1,0.7-0.4,1l-4,4c-0.2,0.2-0.2,0.5,0,0.7
			l3.5,3.5c0.2,0.2,0.5,0.2,0.7,0l4-4c0.2-0.2,0.4-0.3,0.7-0.4c0.7-0.2,1.5,0.3,1.7,1c0.7,3.2-0.2,6.5-2.6,8.8
			c-2.4,2.4-5.9,3.3-9.2,2.5c-0.2,0-0.4,0-0.5,0.1L6.9,31.6C6.1,32.4,4.9,32.9,3.7,32.9z M23.4,0.7c-3.6,0-7,2.6-7.8,6.3
			c-0.3,1.2-0.2,2.6,0.1,3.8c0.2,0.7,0,1.4-0.5,1.9L1.6,26.3c-1.2,1.2-1.2,3.1,0,4.2c1.2,1.2,3.1,1.2,4.2,0L19.4,17
			c0.5-0.5,1.3-0.7,1.9-0.5c2.7,0.7,5.7-0.1,7.7-2.1v0c1.9-1.9,2.7-4.6,2.2-7.2L27.4,11c-0.8,0.8-2.1,0.8-2.8,0l-3.5-3.5
			c-0.4-0.4-0.6-0.9-0.6-1.4c0-0.5,0.2-1,0.6-1.4l3.8-3.8C24.4,0.8,23.9,0.7,23.4,0.7z"/>
	</g>
</g>
</svg>
