<?xml version="1.0" encoding="utf-8"?>
<!-- Generator: Adobe Illustrator 24.2.3, SVG Export Plug-In . SVG Version: 6.00 Build 0)  -->
<svg version="1.1" id="Layer_1" xmlns="http://www.w3.org/2000/svg" xmlns:xlink="http://www.w3.org/1999/xlink" x="0px" y="0px"
	 viewBox="0 0 275.1 76.1" style="enable-background:new 0 0 275.1 76.1;" xml:space="preserve">
<g id="Group_223" transform="translate(213.348 -2529.484)">
	<g id="Ellipse_60">
		<path d="M-175.3,2605.6c-21,0-38.1-17.1-38.1-38.1s17.1-38.1,38.1-38.1s38.1,17.1,38.1,38.1S-154.3,2605.6-175.3,2605.6z
			 M-175.3,2531c-20.2,0-36.6,16.4-36.6,36.6s16.4,36.6,36.6,36.6s36.6-16.4,36.6-36.6S-155.1,2531-175.3,2531z"/>
	</g>
	<g id="Ellipse_61">
		<path d="M-75.8,2605.6c-21,0-38.1-17.1-38.1-38.1s17.1-38.1,38.1-38.1s38.1,17.1,38.1,38.1S-54.8,2605.6-75.8,2605.6z M-75.8,2531
			c-20.2,0-36.6,16.4-36.6,36.6s16.4,36.6,36.6,36.6s36.6-16.4,36.6-36.6S-55.6,2531-75.8,2531z"/>
	</g>
	<g id="Ellipse_62">
		<path d="M23.7,2605.6c-21,0-38.1-17.1-38.1-38.1s17.1-38.1,38.1-38.1c21,0,38.1,17.1,38.1,38.1S44.7,2605.6,23.7,2605.6z
			 M23.7,2531c-20.2,0-36.6,16.4-36.6,36.6s16.4,36.6,36.6,36.6c20.2,0,36.6-16.4,36.6-36.6S43.9,2531,23.7,2531z"/>
	</g>
	<polygon points="-57.4,2554.3 -59,2554.3 -66.9,2577.7 -75,2554.3 -76.6,2554.3 -84.7,2577.7 -92.6,2554.3 -94.2,2554.3 
		-85.5,2580 -83.9,2580 -75.8,2556.6 -67.6,2580 -66.1,2580 	"/>
	<polygon points="-185.2,2554.3 -186.9,2554.3 -186.9,2580 -185.4,2580 -185.4,2556.4 -165.4,2580 -163.7,2580 -163.7,2554.3 
		-165.2,2554.3 -165.2,2577.9 	"/>
	<g>
		<polygon points="34.2,2555.9 34.2,2554.4 14.4,2554.4 14.4,2580 34.2,2580 34.2,2578.5 15.9,2578.5 15.9,2567.5 15.2,2567.5 
			15.2,2566 15.9,2566 15.9,2555.9 		"/>
		<rect x="15.9" y="2566" width="17.5" height="1.5"/>
	</g>
</g>
</svg>
