<svg data-name="Group 165" xmlns="http://www.w3.org/2000/svg" width="138" height="59.801"><g data-name="Group 163"><path data-name="Path 14" d="M4.36 22.848v-.061c0-4.257 5.741-6.093 14.573-6.093 9.137 0 14.9 2.25 15.1 7.04l.021.319h3.639l-.016-.237c-.462-6.938-7.548-10.2-18.759-10.2-11.243 0-18.3 2.933-18.3 9.012v.065c0 14.794 33.626 3.672 33.626 13.962v.061c0 4.14-5.906 6.4-15.4 6.4-9.874 0-14.685-2.081-15.162-7.129l-.042-.247H0l.035.265c.734 7.255 7 10.191 18.823 10.191 11.912 0 19.134-3.381 19.134-9.28v-.061c0-14.638-33.63-3.369-33.63-14" fill="#161615"/></g><path data-name="Rectangle 521" fill="#161615" d="M45.218 0h3.663v59.801h-3.663z"/><path data-name="Rectangle 522" fill="#161615" d="M57.55 21.108h3.662v31.659H57.55z"/><path data-name="Rectangle 523" fill="#161615" d="M57.501 7.034h3.756v7.036h-3.756z"/><g data-name="Group 164"><path data-name="Path 15" d="M122.907 13.634c-8.315 0-14.96 3-17.937 8.6-1.626-5.675-6.684-8.6-14.291-8.6-7.994 0-14.424 2.773-17.544 7.966v-7.53h-3.253v31.661h3.662V29.808c0-7.833 7.125-12.974 16.739-12.974 7.691 0 11.828 3.607 11.828 10.218v18.679h3.665V29.808c0-7.833 7.12-12.974 16.735-12.974 7.691 0 11.829 3.607 11.829 10.218v18.679h3.662V26.576c0-8.511-5.463-12.942-15.094-12.942" fill="#161615"/></g></svg>