<?xml version="1.0" encoding="utf-8"?>
<!-- Generator: Adobe Illustrator 24.2.3, SVG Export Plug-In . SVG Version: 6.00 Build 0)  -->
<svg version="1.1" id="Layer_1" xmlns="http://www.w3.org/2000/svg" xmlns:xlink="http://www.w3.org/1999/xlink" x="0px" y="0px"
	 viewBox="0 0 997.5 21" style="enable-background:new 0 0 997.5 21;" xml:space="preserve">
<style type="text/css">
	.st0{fill:none;stroke:#000000;stroke-width:2;}
</style>
<g>
	<path class="st0" d="M497.2,10.7l2.5-0.3l2.5-0.2l2.5-0.3l2.5-0.3l2.5-0.2l2.5-0.3l2.5-0.2l2.5-0.2l2.5-0.2l2.5-0.3l2.5-0.2
		l2.5-0.2l2.5-0.2l2.5-0.2l2.5-0.2l2.5-0.2l2.5-0.2l2.5-0.2l2.5-0.2l2.5-0.2l2.5-0.2l2.5-0.2l2.5-0.2l2.5-0.2l2.5-0.2l2.5-0.2
		l2.5-0.2l2.5-0.2l2.5-0.2l2.5-0.2l2.5-0.1l2.5-0.1l2.5-0.1l2.5-0.1l2.5-0.1l2.5-0.1l2.5-0.1l2.5-0.1l2.5-0.1l2.5-0.1l2.5-0.1
		l2.5-0.1l2.5-0.1l2.5,0l2.5,0l2.5,0l2.5,0l2.5,0l2.5,0h2.5h2.5l2.5,0l2.5,0l2.5,0l2.5,0l2.5,0l2.5,0l2.5,0.1l2.5,0.1l2.5,0.1
		l2.5,0.1l2.5,0.1l2.5,0.1l2.5,0.1l2.5,0.1l2.5,0.1l2.5,0.1l2.5,0.1l2.5,0.1l2.5,0.1l2.5,0.2l2.5,0.2l2.5,0.2l2.5,0.2l2.5,0.2
		l2.5,0.2l2.5,0.2l2.5,0.2l2.5,0.2l2.5,0.2l2.5,0.2l2.5,0.2l2.5,0.2l2.5,0.2l2.5,0.2l2.5,0.2l2.5,0.2l2.5,0.2l2.5,0.2l2.5,0.2
		l2.5,0.3l2.5,0.2l2.5,0.2l2.5,0.2l2.5,0.3l2.5,0.2l2.5,0.3l2.5,0.3l2.5,0.2l2.5,0.3l2.5,0.3l2.5,0.2l2.5,0.3l2.5,0.3l2.5,0.2
		l2.5,0.3l2.5,0.2l2.5,0.2l2.5,0.2l2.5,0.3l2.5,0.2l2.5,0.2l2.5,0.2l2.5,0.2l2.5,0.2l2.5,0.2l2.5,0.2l2.5,0.2l2.5,0.2l2.5,0.2
		l2.5,0.2l2.5,0.2l2.5,0.2l2.5,0.2l2.5,0.2l2.5,0.2l2.5,0.2l2.5,0.2l2.5,0.2l2.5,0.2l2.5,0.1l2.5,0.1l2.5,0.1l2.5,0.1l2.5,0.1
		l2.5,0.1l2.5,0.1l2.5,0.1l2.5,0.1l2.5,0.1l2.5,0.1l2.5,0.1l2.5,0.1l2.5,0l2.5,0l2.5,0l2.5,0l2.5,0l2.5,0h2.5h2.5l2.5,0l2.5,0l2.5,0
		l2.5,0l2.5,0l2.5,0l2.5-0.1l2.5-0.1l2.5-0.1l2.5-0.1l2.5-0.1l2.5-0.1l2.5-0.1l2.5-0.1l2.5-0.1l2.5-0.1l2.5-0.1l2.5-0.1l2.5-0.1
		l2.5-0.2l2.5-0.2l2.5-0.2l2.5-0.2l2.5-0.2l2.5-0.2l2.5-0.2l2.5-0.2l2.5-0.2l2.5-0.2l2.5-0.2l2.5-0.2l2.5-0.2l2.5-0.2l2.5-0.2
		l2.5-0.2l2.5-0.2l2.5-0.2l2.5-0.2l2.5-0.2l2.5-0.3l2.5-0.2l2.5-0.2l2.5-0.2l2.5-0.3l2.5-0.2l2.5-0.3l2.5-0.3l2.5-0.2l2.5-0.3"/>
	<path class="st0" d="M0.2,10.3l2.5-0.3l2.5-0.2l2.5-0.3l2.5-0.3l2.5-0.2l2.5-0.3l2.5-0.2l2.5-0.2l2.5-0.2l2.5-0.3l2.5-0.2l2.5-0.2
		l2.5-0.2L35.2,7l2.5-0.2l2.5-0.2l2.5-0.2l2.5-0.2l2.5-0.2l2.5-0.2l2.5-0.2l2.5-0.2l2.5-0.2L60.2,5l2.5-0.2l2.5-0.2l2.5-0.2l2.5-0.2
		l2.5-0.2L75.2,4l2.5-0.1l2.5-0.1l2.5-0.1l2.5-0.1l2.5-0.1l2.5-0.1l2.5-0.1L95.2,3L97.7,3l2.5-0.1l2.5-0.1l2.5-0.1l2.5-0.1l2.5,0
		l2.5,0l2.5,0l2.5,0l2.5,0l2.5,0h2.5h2.5l2.5,0l2.5,0l2.5,0l2.5,0l2.5,0l2.5,0l2.5,0.1l2.5,0.1l2.5,0.1l2.5,0.1l2.5,0.1l2.5,0.1
		l2.5,0.1l2.5,0.1l2.5,0.1l2.5,0.1l2.5,0.1l2.5,0.1l2.5,0.1l2.5,0.2l2.5,0.2l2.5,0.2l2.5,0.2l2.5,0.2l2.5,0.2l2.5,0.2l2.5,0.2
		l2.5,0.2l2.5,0.2l2.5,0.2l2.5,0.2l2.5,0.2l2.5,0.2l2.5,0.2l2.5,0.2l2.5,0.2l2.5,0.2l2.5,0.2l2.5,0.2l2.5,0.3l2.5,0.2l2.5,0.2
		l2.5,0.2l2.5,0.3l2.5,0.2l2.5,0.3l2.5,0.3l2.5,0.2l2.5,0.3l2.5,0.3l2.5,0.2l2.5,0.3l2.5,0.3l2.5,0.2l2.5,0.3l2.5,0.2l2.5,0.2
		l2.5,0.2l2.5,0.3l2.5,0.2l2.5,0.2l2.5,0.2l2.5,0.2l2.5,0.2l2.5,0.2l2.5,0.2l2.5,0.2l2.5,0.2l2.5,0.2l2.5,0.2l2.5,0.2l2.5,0.2
		l2.5,0.2l2.5,0.2l2.5,0.2l2.5,0.2l2.5,0.2l2.5,0.2l2.5,0.2l2.5,0.1l2.5,0.1l2.5,0.1l2.5,0.1l2.5,0.1l2.5,0.1l2.5,0.1l2.5,0.1
		l2.5,0.1l2.5,0.1l2.5,0.1l2.5,0.1l2.5,0.1l2.5,0l2.5,0l2.5,0l2.5,0l2.5,0l2.5,0h2.5h2.5l2.5,0l2.5,0l2.5,0l2.5,0l2.5,0l2.5,0
		l2.5-0.1l2.5-0.1l2.5-0.1l2.5-0.1l2.5-0.1l2.5-0.1l2.5-0.1l2.5-0.1l2.5-0.1l2.5-0.1l2.5-0.1l2.5-0.1l2.5-0.1l2.5-0.2l2.5-0.2
		l2.5-0.2l2.5-0.2l2.5-0.2l2.5-0.2l2.5-0.2l2.5-0.2l2.5-0.2l2.5-0.2l2.5-0.2l2.5-0.2l2.5-0.2l2.5-0.2l2.5-0.2l2.5-0.2l2.5-0.2
		l2.5-0.2l2.5-0.2l2.5-0.2l2.5-0.3l2.5-0.2l2.5-0.2l2.5-0.2l2.5-0.3l2.5-0.2l2.5-0.3l2.5-0.3l2.5-0.2l2.5-0.3"/>
</g>
</svg>
