<svg xmlns="http://www.w3.org/2000/svg" width="146.329" height="147.483"><g data-name="Logo 4i" fill="#b2b2b2"><path data-name="Path 402" d="M74.026 46.073h-3.294L37.568 81.921v2.677h33.39v14.4h3.064v-14.4h9.042l.744-2.759h-9.786zm-3.068 35.781H41.323L70.958 49.88z"/><path data-name="Rectangle 524" d="M91.947 59.71h3.22v39.291h-3.22z"/><path data-name="Rectangle 525" d="M91.872 44.31h3.368v7.28h-3.368z"/><path data-name="Path 403" d="M66.658 136.879l-.855-.089-1.101 10.551 1.361.141 1.108-10.559-.424-.045z"/><path data-name="Path 404" d="M59.014 144.248l-1.086-8.923-.454-.119-.223-.059-.409-.1-5.317 7.28 2.089-8.113-1.219-.3-2.654 10.275 1.591.409 5.607-7.83 1.071 9.57 1.643.424 2.647-10.284-1.2-.342z"/><path data-name="Path 405" d="M46.239 135.757l-1.985-.944a5.681 5.681 0 00-1.852-.58 2.922 2.922 0 00-1.4.141 2.506 2.506 0 00-1.026.7 4.29 4.29 0 00-.744 1.078 4.083 4.083 0 00-.364 1.167 2.231 2.231 0 00.119 1.167 2.975 2.975 0 00.8 1.138 6.4 6.4 0 001.643 1.056l3.21 1.484 4.551-9.592-1.219-.58zm-2.29 4.841l-1.963-.929a4.946 4.946 0 01-1.078-.654 1.941 1.941 0 01-.558-.684 1.368 1.368 0 01-.1-.744 3.153 3.153 0 01.283-.863 3.094 3.094 0 01.476-.744 1.487 1.487 0 01.647-.439 1.778 1.778 0 01.9-.052 4.774 4.774 0 011.219.409l1.971.944z"/><path data-name="Path 406" d="M38.971 127.213l-2.528 3.614-1.725-1.2-.335-.223a3.666 3.666 0 00-.357-.208l.929-4.8-1.257-.87-.885 5.205a2.818 2.818 0 00-1.777.126 3.3 3.3 0 00-1.331 1.175 3.719 3.719 0 00-.483.989 2.141 2.141 0 00-.052 1.13 3.16 3.16 0 00.587 1.249 5.845 5.845 0 001.487 1.331l2.855 1.985 5.986-8.767zm-5.384 7.778l-1.71-1.19a5.122 5.122 0 01-.959-.818 1.985 1.985 0 01-.431-.744 1.4 1.4 0 010-.744 2.633 2.633 0 01.349-.744 3.1 3.1 0 01.565-.625 1.323 1.323 0 01.662-.3 1.755 1.755 0 01.833.082 3.9 3.9 0 011.041.558l1.859 1.286z"/><path data-name="Path 407" d="M30.199 122.06a4.2 4.2 0 00-.335-1.852 3.1 3.1 0 00-.178-.349 5.5 5.5 0 00-.974-1.309 5.264 5.264 0 00-1.309-.967 3.411 3.411 0 00-.372-.178 4.082 4.082 0 00-1.852-.32 4.923 4.923 0 00-1.948.55 7.555 7.555 0 00-1.933 1.443 7.272 7.272 0 00-1.42 1.933 4.915 4.915 0 00-.521 1.933 4.045 4.045 0 00.335 1.844 5.153 5.153 0 001.138 1.68 5.027 5.027 0 001.658 1.13 4.224 4.224 0 001.859.327 5.13 5.13 0 001.956-.528 8.112 8.112 0 003.368-3.368 4.863 4.863 0 00.528-1.969zm-1.331 0a4.083 4.083 0 01-.513 1.435 7.719 7.719 0 01-2.543 2.551 4.083 4.083 0 01-1.443.521 2.975 2.975 0 01-1.405-.134 3.451 3.451 0 01-1.286-.848 3.279 3.279 0 01-.848-1.249 2.922 2.922 0 01-.134-1.391 4.052 4.052 0 01.513-1.45 6.617 6.617 0 011.108-1.428 6.462 6.462 0 011.487-1.123 3.963 3.963 0 011.435-.521 2.974 2.974 0 011.391.134 3.867 3.867 0 012.142 2.134 2.974 2.974 0 01.1 1.391z"/><path data-name="Path 408" d="M20.89 109.552l-11.035 2.736.84 1.2 9.139-2.372-5.406 7.718.887 1.268 6.373-9.421z"/><path data-name="Rectangle 526" d="M7.381 107.557l9.408-4.923.634 1.213-9.408 4.922z"/><path data-name="Path 409" d="M14.702 98.235l-7.882 2.878 6.008-7.986-.447-1.235-9.971 3.651.454 1.242 7.919-2.9-6.068 7.971.466 1.272 9.971-3.651z"/><path data-name="Path 410" d="M6.338 89.833a7.763 7.763 0 002.231-.706 4.833 4.833 0 001.562-1.234 4.164 4.164 0 00.825-1.71 3.227 3.227 0 00.067-.4 5.6 5.6 0 00-.007-1.7 6.96 6.96 0 00-.268-1.063 4.99 4.99 0 00-.238-.58c-.067-.149-.134-.3-.216-.446a5.949 5.949 0 00-.625-.922 4.759 4.759 0 00-.744-.744l-4.194.744.654 3.911 1.175-.193-.446-2.64 2.506-.424a3.867 3.867 0 01.818 1.153 5.949 5.949 0 01.439 1.487 3.569 3.569 0 01-.052 1.576 2.893 2.893 0 01-.7 1.227 3.822 3.822 0 01-1.264.87 7.176 7.176 0 01-1.733.5 6.879 6.879 0 01-1.807.089 4.2 4.2 0 01-1.487-.394 2.907 2.907 0 01-1.063-.877 3.309 3.309 0 01-.558-1.383 3.532 3.532 0 010-1.108 2.1 2.1 0 01.29-.825 2.461 2.461 0 01.565-.617 4.745 4.745 0 01.788-.454l-.439-1.264a4.781 4.781 0 00-1.145.669 3.406 3.406 0 00-.818.944 3.48 3.48 0 00-.416 1.257 5.071 5.071 0 00.052 1.591 4.789 4.789 0 00.684 1.829 4.1 4.1 0 001.316 1.309 5.2 5.2 0 001.9.684 7.3 7.3 0 002.348-.156z"/><path data-name="Rectangle 527" d="M3.203 70.072l.281-3.514 3.514.282-.281 3.513z"/><path data-name="Rectangle 528" d="M1.909 54.497l.372-1.316L12.5 56.07l-.373 1.316z"/><path data-name="Path 411" d="M14.828 49.537a6.752 6.752 0 00.558-2.156 4.253 4.253 0 00-1.391-3.554 6.945 6.945 0 00-2.008-1.272 7.086 7.086 0 00-2.231-.6 4.343 4.343 0 00-1.889.245 3.934 3.934 0 00-1.487 1.026 6.254 6.254 0 00-1.167 1.777l-1.485 3.389 9.741 4.227zm-9.464-1.888l.937-2.156a4.075 4.075 0 01.885-1.353 2.669 2.669 0 011.167-.677 3.5 3.5 0 011.428-.067 6.781 6.781 0 011.666.506 4.7 4.7 0 012.446 2.045 3.547 3.547 0 01-.134 3.086l-.825 1.9z"/><path data-name="Path 412" d="M13.343 30.509l-3.763 5.75 8.886 5.822 3.792-5.8-.885-.848-3.163 4.839-3.064-2 2.855-4.357-1.019-.669-2.855 4.357-2.788-1.829 3.019-4.6z"/><path data-name="Path 413" d="M29.203 28.398l1.019-1.087-10.581-4.2-.982 1.056 4.952 10.269.937-1.078-1.369-2.811 3.1-3.336zm-6.61 1.013l-2.342-4.707 4.878 1.985z"/><path data-name="Path 414" d="M37.465 21.646l-.58-1.093-4.357 3.368-5.749-7.443-1.078.84 6.484 8.4z"/><path data-name="Rectangle 529" d="M42.583 10.902l3.208-1.46 1.46 3.208-3.209 1.46z"/><path data-name="Rectangle 530" d="M55.619 2.207l1.332-.312 2.421 10.338-1.332.312z"/><path data-name="Path 415" d="M70.881 10.652L69.832.082l-1.324.126.833 8.4-6.2-7.86-1.346.134 1.048 10.566 1.316-.134-.825-8.343 6.239 7.808z"/><path data-name="Path 416" d="M78.331 10.938l.647-9.377 3.5.245.089-1.219L74.179 0l-.082 1.219 3.5.245-.654 9.377z"/><path data-name="Path 417" d="M91.612 12.076l-5.636-1.3.825-3.569 5.071 1.182.275-1.19-5.071-1.175.751-3.249 5.361 1.242.275-1.167-6.692-1.554-2.402 10.338 6.752 1.569z"/><path data-name="Path 418" d="M100.721 15.548l-5.109-2.04 3.495-8.722-1.27-.518-3.948 9.86 6.185 2.48z"/><path data-name="Path 419" d="M107.979 8.745l-5.384 9.154 5.748 3.376.8-.944-4.744-2.788 4.766-8.105z"/><path data-name="Rectangle 531" d="M110.677 23.041l6.392-8.473 1.092.823-6.392 8.474z"/><path data-name="Path 420" d="M116.626 28.056a5.748 5.748 0 001.026 1.338 7.1 7.1 0 00.84.7 5.036 5.036 0 00.491.32c.156.089.312.171.476.245a5.844 5.844 0 001.041.387 4.907 4.907 0 001.086.156l2.974-3.026-2.826-2.788-.833.848 1.9 1.881-1.785 1.807a3.822 3.822 0 01-1.331-.454 5.621 5.621 0 01-1.212-.922 3.614 3.614 0 01-.885-1.309 2.907 2.907 0 01-.149-1.405 3.718 3.718 0 01.513-1.443 7.019 7.019 0 011.108-1.42 6.878 6.878 0 011.413-1.13 4.135 4.135 0 011.428-.543 2.841 2.841 0 011.368.089 3.116 3.116 0 011.264.8 3.547 3.547 0 01.677.87 2.045 2.045 0 01.245.84 2.305 2.305 0 01-.1.833 4.462 4.462 0 01-.364.825l1.093.744a4.73 4.73 0 00.535-1.219 3.347 3.347 0 00.1-1.242 3.286 3.286 0 00-.394-1.257 5.2 5.2 0 00-.974-1.264 4.789 4.789 0 00-1.628-1.078 4.082 4.082 0 00-1.837-.29 5.131 5.131 0 00-1.933.558 7.279 7.279 0 00-1.926 1.443 7.941 7.941 0 00-1.413 1.9 4.862 4.862 0 00-.543 1.918 4.283 4.283 0 00.335 1.866 4.36 4.36 0 00.22.422z"/><path data-name="Path 421" d="M130.524 37.083l1-.706-3.038-4.232 2.714-1.941 3.2 4.476.982-.706-4-5.584-8.633 6.179 4.03 5.636 1.107-.515-3.361-4.707 2.974-2.127z"/><path data-name="Path 422" d="M128.858 43.857l7.54-3.681-5.153 8.566.573 1.182 9.54-4.655-.573-1.19-7.585 3.7 5.213-8.551-.587-1.212-9.548 4.651z"/><path data-name="Path 423" d="M133.729 55.687l.387 1.331 9.027-2.617.974 3.368 1.175-.335-2.335-8.068-1.175.335.974 3.376z"/><path data-name="Rectangle 532" d="M139.548 69.08l3.521-.163.163 3.521-3.521.163z"/><path data-name="Rectangle 533" d="M135.625 83.977l.2-1.353 10.504 1.555-.2 1.353z"/><path data-name="Path 424" d="M134.732 88.762l8.06 2.305-9.562 2.93-.357 1.257 10.209 2.915.364-1.272-8.105-2.313 9.592-2.878.372-1.3-10.212-2.916z"/><path data-name="Path 425" d="M129.609 102.526l7.726 8.35.647-1.324-6.477-6.856 9.362 1.019.684-1.391-11.325-1.041z"/><path data-name="Rectangle 534" d="M124.727 109.563l.752-1.136 8.818 5.836-.752 1.136z"/><path data-name="Path 426" d="M129.758 117.353a3.212 3.212 0 00-1.093-.662 2.134 2.134 0 00-1.078-.082 3.48 3.48 0 00-1.108.409 7.992 7.992 0 00-1.182.825l-1.056.863a3.935 3.935 0 01-.848.55 1.822 1.822 0 01-.744.186 1.3 1.3 0 01-.587-.126 2.483 2.483 0 01-.506-.335 2.171 2.171 0 01-.476-.573 1.435 1.435 0 01-.2-.7 1.889 1.889 0 01.171-.84 3.867 3.867 0 01.639-.989 3.718 3.718 0 011.755-1.272 2.305 2.305 0 011.8.379l.892-1.034a3.658 3.658 0 00-1.4-.654 2.974 2.974 0 00-1.376 0 3.86 3.86 0 00-1.182.55c-.045 0-.089.045-.126.074a7.042 7.042 0 00-1.249 1.175 5.384 5.384 0 00-.93 1.435 3.45 3.45 0 00-.3 1.346 2.707 2.707 0 00.268 1.19 2.974 2.974 0 00.744.967 2.8 2.8 0 002.112.8 4.841 4.841 0 002.365-1.167l1.175-.952a5.405 5.405 0 01.788-.543 1.785 1.785 0 01.662-.223 1.234 1.234 0 01.595.082 2.231 2.231 0 01.58.372 1.978 1.978 0 01.431.535 1.368 1.368 0 01.141.677 2.372 2.372 0 01-.238.84 4.885 4.885 0 01-.7 1.011 4.225 4.225 0 01-.8.744 2.172 2.172 0 01-.744.342 1.777 1.777 0 01-.744 0 3.458 3.458 0 01-.8-.29l-.631 1.135a5.659 5.659 0 001 .4 2.625 2.625 0 001.108.059 3.242 3.242 0 001.219-.468 5.71 5.71 0 001.324-1.19 6.268 6.268 0 00.877-1.286 3.673 3.673 0 00.387-1.294 2.751 2.751 0 00-.164-1.227 2.5 2.5 0 00-.771-1.039z"/><path data-name="Rectangle 535" d="M115.169 121.27l1.013-.92 7.138 7.861-1.013.92z"/><path data-name="Path 427" d="M109.384 125.815a5.852 5.852 0 00-1.331 1.227 3.116 3.116 0 00-.58 1.212 2.506 2.506 0 000 1.175 3.674 3.674 0 00.535 1.1 3.348 3.348 0 00.506.565 1.949 1.949 0 00.639.4 2.625 2.625 0 00.818.171 3.577 3.577 0 001-.112 2.528 2.528 0 00-.4 1.487 2.58 2.58 0 00.483 1.264 3.235 3.235 0 00.744.744 1.9 1.9 0 00.974.372 3.205 3.205 0 001.279-.193 6.692 6.692 0 001.643-.9l2.878-2.03-6.127-8.678zm7.48 6.335l-1.747 1.234a3.435 3.435 0 01-1.785.744 1.383 1.383 0 01-1.175-.7 1.584 1.584 0 01-.32-1.346 2.655 2.655 0 011.153-1.353l1.933-1.368zm-4.662-2.231a2.722 2.722 0 01-1.792.654 1.837 1.837 0 01-1.279-.855 2.6 2.6 0 01-.364-.744 1.227 1.227 0 010-.744 2.015 2.015 0 01.409-.744 4.879 4.879 0 01.915-.81l1.971-1.391 2.231 3.138z"/><path data-name="Path 428" d="M97.672 132.396l.349 1.19 4.937-2.424 4.134 8.44 1.234-.6-4.677-9.533z"/><path data-name="Path 429" d="M88.407 135.466l.149 1.212 5.525-1.71 1.086 3.495-4.975 1.539.357 1.167 4.978-1.546.989 3.183-5.257 1.628.357 1.153 6.558-2.037-3.147-10.136z"/><path data-name="Rectangle 536" d="M75.885 140.464l3.518-.233.233 3.518-3.518.233z"/></g></svg>