<svg xmlns="http://www.w3.org/2000/svg" width="284.407" height="34.134"><g data-name="Group 207"><g data-name="Group 202"><path data-name="Path 453" d="M208.13 13.04v-.035c0-2.43 3.277-3.478 8.318-3.478 5.215 0 8.507 1.284 8.618 4.018l.012.182h2.077l-.009-.135c-.264-3.96-4.308-5.824-10.707-5.824-6.417 0-10.445 1.674-10.445 5.144v.037c0 8.444 19.193 2.1 19.193 7.969v.035c0 2.363-3.371 3.653-8.792 3.653-5.636 0-8.382-1.188-8.654-4.069l-.024-.141h-2.077l.02.151c.419 4.141 3.993 5.817 10.744 5.817 6.8 0 10.921-1.93 10.921-5.3v-.035c0-8.355-19.195-1.923-19.195-7.992" fill="#b2b2b2"/></g><path data-name="Rectangle 567" fill="#b2b2b2" d="M231.449 0h2.091v34.133h-2.091z"/><path data-name="Rectangle 568" fill="#b2b2b2" d="M238.488 12.048h2.09v18.07h-2.09z"/><path data-name="Rectangle 569" fill="#b2b2b2" d="M238.46 4.015h2.144v4.016h-2.144z"/><g data-name="Group 203" fill="#b2b2b2"><path data-name="Path 454" d="M275.792 7.782c-4.746 0-8.539 1.714-10.238 4.911-.928-3.239-3.815-4.911-8.157-4.911-4.563 0-8.233 1.583-10.014 4.547v-4.3h-1.857v18.07h2.09v-9.085c0-4.471 4.067-7.4 9.554-7.4 4.39 0 6.751 2.059 6.751 5.832v10.653h2.092v-9.085c0-4.471 4.064-7.4 9.552-7.4 4.39 0 6.752 2.059 6.752 5.832v10.653h2.09v-10.93c0-4.858-3.118-7.387-8.615-7.387"/><path data-name="Path 455" d="M82.695 20.009a1.1 1.1 0 01-.319.8 1.063 1.063 0 01-.791.329h-9.039a1.076 1.076 0 01-.781-.329 1.09 1.09 0 01-.327-.8v-5.884a1.094 1.094 0 01.327-.8 1.075 1.075 0 01.781-.328h9.039a1.062 1.062 0 01.791.328 1.107 1.107 0 01.319.8zm2.019-9.01a4.675 4.675 0 00-1.414-.963 4.227 4.227 0 00-1.715-.361h-9.039a4.354 4.354 0 00-1.715.35 4.581 4.581 0 00-1.414.942 4.434 4.434 0 00-.964 1.419 4.292 4.292 0 00-.36 1.742v5.881a4.361 4.361 0 00.347 1.731 4.489 4.489 0 002.37 2.37 4.358 4.358 0 001.736.347h9.039a4.34 4.34 0 001.743-.355 4.5 4.5 0 001.417-.967 4.6 4.6 0 00.944-1.414 4.288 4.288 0 00.347-1.712v-5.884a4.183 4.183 0 00-.358-1.714 4.6 4.6 0 00-.964-1.412"/></g><path data-name="Path 456" d="M31.263 24.479h3.343v-5.8h9.219v-3.346h-9.219v-2.359h11.057v-3.32h-14.4z" fill="#b2b2b2"/><path data-name="Path 457" d="M53.225 9.654h-3.342v14.825h14.562v-3.343h-11.22z" fill="#b2b2b2"/><g data-name="Group 204" fill="#b2b2b2"><path data-name="Path 458" d="M111.258 9.672l-2.772 8.2c-.2.616-.4 1.248-.574 1.9s-.362 1.33-.555 2.042l-.664-2.319a63.95 63.95 0 00-.482-1.618l-2.583-8.2h-3.674l-2.563 8.2c-.286.9-.532 1.678-.73 2.327s-.344 1.186-.441 1.61q-.287-1.068-.552-2.042a44.463 44.463 0 00-.573-1.9l-2.773-8.2h-3.854L93.8 24.457h4.595l3.408-9.9 3.382 9.9h4.615l5.312-14.785z"/><path data-name="Path 459" d="M158.9 16.684h-9.372v-3.69h9.372a1.07 1.07 0 01.778.328 1.094 1.094 0 01.327.8v1.453a1.118 1.118 0 01-1.1 1.106m.715 3.325l-.066-.067a3.909 3.909 0 001.072-.293 4.62 4.62 0 001.4-.963 4.449 4.449 0 00.953-1.407 4.1 4.1 0 00.351-1.7v-1.451a4.194 4.194 0 00-.351-1.714 4.451 4.451 0 00-.957-1.412 4.729 4.729 0 00-1.4-.963 4.185 4.185 0 00-1.721-.361H146.2v14.804h3.325v-4.47h5.617l4.243 4.448h4.715z"/></g><path data-name="Rectangle 570" fill="#b2b2b2" d="M137.517 9.654h3.341v14.825h-3.341z"/><g data-name="Group 205" fill="#b2b2b2"><path data-name="Path 460" d="M122.072 17.793a34.645 34.645 0 002.524-5.5 15.8 15.8 0 00.852 2.194q.624 1.371 1.69 3.3zm.5-8.121l-7.754 14.785h3.857l1.641-3.321h8.584l1.639 3.321h3.833l-7.747-14.785z"/><path data-name="Path 461" d="M16.941 15.805c-.152-3.368 6.859-10.876 4.206-11.031-12.176-.749-3.641 8.2-9.395 11.884C8.914 18.475-1.088 16.156.1 18.536c5.443 10.922 8.926-.949 14.993 2.192 2.995 1.551 5.984 11.378 7.449 9.161 6.736-10.176-5.284-7.26-5.6-14.084"/></g><path data-name="Rectangle 571" fill="#b2b2b2" d="M184.137 0h1.045v34.134h-1.045z"/></g></svg>