<svg data-name="Group 162" xmlns="http://www.w3.org/2000/svg" width="276" height="46.763"><g data-name="Group 159"><path data-name="Path 16" d="M139.087 28.039a2.124 2.124 0 01-.537 1.466 1.718 1.718 0 01-1.33.6h-15.2a1.739 1.739 0 01-1.314-.6 2.1 2.1 0 01-.55-1.466v-10.8a2.1 2.1 0 01.55-1.474 1.737 1.737 0 011.314-.6h15.2a1.716 1.716 0 011.33.6 2.133 2.133 0 01.537 1.474zm3.4-16.539a7.873 7.873 0 00-2.378-1.767 6.607 6.607 0 00-2.884-.662h-15.2a6.8 6.8 0 00-2.884.642 7.7 7.7 0 00-2.378 1.729 8.206 8.206 0 00-1.621 2.6 8.494 8.494 0 00-.605 3.2v10.8a8.637 8.637 0 00.584 3.176 8.375 8.375 0 001.611 2.6 7.6 7.6 0 002.375 1.749 6.805 6.805 0 002.92.637h15.2a6.779 6.779 0 002.932-.651 7.589 7.589 0 002.376-1.778 8.581 8.581 0 002.171-5.736v-10.8a8.277 8.277 0 00-.6-3.145 8.51 8.51 0 00-1.621-2.6" fill="#161615"/></g><path data-name="Path 400" d="M52.581 36.24h5.623V25.592h15.505v-6.135H58.203v-4.329h18.6V9.036H52.581z" fill="#161615"/><path data-name="Path 401" d="M89.515 9.036h-5.617v27.2h24.492v-6.13H89.515z" fill="#161615"/><g data-name="Group 160" fill="#161615"><path data-name="Path 19" d="M187.126 9.069l-4.662 15.056c-.341 1.13-.669 2.29-.965 3.477s-.609 2.441-.933 3.747c-.432-1.655-.809-3.079-1.117-4.255s-.58-2.171-.811-2.969l-4.346-15.056h-6.179l-4.311 15.056c-.481 1.657-.895 3.079-1.228 4.27s-.579 2.176-.742 2.954q-.482-1.96-.928-3.747a76.587 76.587 0 00-.964-3.477l-4.664-15.056h-6.482l8.968 27.127h7.728l5.736-18.17 5.684 18.17h7.762l8.934-27.131z"/><path data-name="Path 20" d="M267.249 21.936h-15.763v-6.771h15.763a1.729 1.729 0 011.309.6 2.1 2.1 0 01.55 1.474v2.666a2.04 2.04 0 01-.55 1.428 1.723 1.723 0 01-1.309.6m1.2 6.1l-.111-.123a6.15 6.15 0 001.8-.538 7.786 7.786 0 002.361-1.767 8.237 8.237 0 001.6-2.582 8.114 8.114 0 00.59-3.121V17.24a8.554 8.554 0 00-2.193-5.742 7.97 7.97 0 00-2.361-1.767 6.543 6.543 0 00-2.895-.662h-21.346V36.24h5.592v-8.2h9.447l7.136 8.162h7.93z"/></g><path data-name="Rectangle 520" fill="#161615" d="M231.29 9.036h5.619V36.24h-5.619z"/><g data-name="Group 161" fill="#161615"><path data-name="Path 21" d="M205.313 23.971a66.551 66.551 0 004.245-10.084 30.655 30.655 0 001.433 4.026q1.049 2.516 2.842 6.057zm.834-14.9l-13.041 27.125h6.486l2.76-6.094h14.453l2.757 6.094h6.447L212.971 9.069z"/><path data-name="Path 22" d="M28.493 20.323C28.238 14.143 40.029.369 35.567.081c-20.479-1.374-6.124 15.045-15.8 21.808-4.773 3.334-21.6-.921-19.6 3.446 9.155 20.042 15.013-1.741 25.217 4.022 5.033 2.846 10.06 20.879 12.524 16.812 11.329-18.673-8.887-13.322-9.415-25.845"/></g></svg>